<svg width="24" height="24" viewBox="0 0 24 24" fill="none" xmlns="http://www.w3.org/2000/svg">
<g clip-path="url(#clip0_23_55)">
<path d="M12.138 4.53798C12.4745 4.40354 12.8412 4.36304 13.1989 4.42081C13.5566 4.47858 13.8919 4.63245 14.169 4.86598L14.295 4.98098L19.019 9.70498C19.2756 9.96125 19.4576 10.2824 19.5457 10.6342C19.6337 10.986 19.6245 11.3551 19.519 11.702L19.462 11.862L17.097 17.775C16.9644 18.106 16.7457 18.3956 16.4634 18.6137C16.1812 18.8317 15.8458 18.9703 15.492 19.015L10.413 19.65C10.283 19.665 10.145 19.684 10.003 19.706L9.559 19.778L9.327 19.82L8.604 19.96L8.109 20.066L7.364 20.233L6.409 20.461L4.857 20.857L4.211 21.031C4.04798 21.0758 3.87631 21.079 3.71174 21.0402C3.54716 21.0015 3.39495 20.922 3.26905 20.8092C3.14316 20.6963 3.04761 20.5537 2.99117 20.3943C2.93472 20.2349 2.9192 20.0639 2.946 19.897L2.98 19.751L3.275 18.639L3.539 17.591L3.767 16.636L3.934 15.891L4.039 15.395L4.18 14.673L4.26 14.216L4.324 13.788L4.984 8.50798C5.02549 8.1821 5.14665 7.87147 5.33677 7.60356C5.52688 7.33566 5.7801 7.11873 6.074 6.97198L6.225 6.90298L12.138 4.53798ZM12.88 6.39498L6.968 8.75998L6.384 13.432L6.336 13.828C6.23798 14.5636 6.10954 15.2949 5.951 16.02L5.78 16.806L9.068 13.518C8.95401 13.0927 8.98354 12.6417 9.152 12.2349C9.32047 11.8281 9.61845 11.4883 9.99974 11.2682C10.381 11.048 10.8243 10.9598 11.2608 11.0173C11.6973 11.0747 12.1027 11.2746 12.414 11.586C12.7254 11.8973 12.9252 12.3026 12.9827 12.7392C13.0402 13.1757 12.952 13.619 12.7318 14.0002C12.5117 14.3815 12.1718 14.6795 11.7651 14.848C11.3583 15.0164 10.9073 15.046 10.482 14.932L7.194 18.22L7.586 18.133L8.37 17.968C8.85855 17.868 9.34974 17.7813 9.84301 17.708L15.24 17.032L17.605 11.12L12.88 6.39498ZM15.243 3.10098C15.4151 2.92866 15.6441 2.82504 15.8871 2.80958C16.1302 2.79411 16.3705 2.86786 16.563 3.01698L16.657 3.10098L20.899 7.34298C21.0803 7.52252 21.186 7.76455 21.1947 8.01953C21.2033 8.27451 21.1142 8.52315 20.9455 8.71456C20.7769 8.90597 20.5414 9.02568 20.2874 9.04918C20.0333 9.07269 19.7799 8.9982 19.579 8.84098L19.485 8.75698L15.243 4.51498C15.0555 4.32745 14.9502 4.07315 14.9502 3.80798C14.9502 3.54282 15.0555 3.28851 15.243 3.10098Z" fill="black"/>
</g>
<defs>
<clipPath id="clip0_23_55">
<rect width="24" height="24" fill="white"/>
</clipPath>
</defs>
</svg>
