<svg xmlns="http://www.w3.org/2000/svg" xmlns:xlink="http://www.w3.org/1999/xlink"><defs><symbol viewBox="0 0 24 24" id="english"><path d="M2.25 5.20331H21.75V18.7965H2.25V5.20331Z" fill="#0B55B1"/><path d="M21.75 5.20331H18.963L12 10.0571L5.037 5.20331H2.25V7.14618L9.213 12L2.25 16.8538V18.7967H5.037L12 13.9429L18.963 18.7967H21.75V16.8538L14.787 12L21.75 7.14618V5.20331Z" fill="#F0F0F0"/><path d="M21.75 5.20331H21.6696L12 11.9439L2.33044 5.20331H2.25V6.08568L11.3269 12.4131L2.25 18.7406V18.7967H3.51581L12 12.8824L20.4842 18.7967H21.75V18.7406L12.6731 12.4131L21.75 6.08568V5.20331Z" fill="#D60A2E"/><path d="M21.75 10.2501H13.7499V5.20331H10.2501V10.2501H2.25V13.7499H10.2501V18.7967H13.7499V13.7499H21.75V10.2501Z" fill="#F0F0F0"/><path d="M11.1876 18.7969V12.8124H2.25V11.1876H11.1876V5.20312H12.8124V11.1876H21.75V12.8124H12.8124V18.7969H11.1876Z" fill="#D60A2E"/></symbol><symbol viewBox="0 0 24 24" id="finnish"><path d="M2.25 5.20331H21.75V18.7965H2.25V5.20331Z" fill="#F0F0F0"/><path d="M21.7501 10.2501H10.75V5.20331H7.25012V10.2501H2.20337V13.7499H7.25012V18.7967H10.75V13.7499H21.7501V10.2501Z" fill="#0B55B1"/></symbol><symbol viewBox="0 0 24 24" id="swedish"><path d="M2.25 5.20331H21.75V18.7965H2.25V5.20331Z" fill="#0B55B1"/><path d="M21.75 10.8126H10.3281V5.20331H7.95319V10.8126H2.25V13.1874H7.95319V18.7967H10.3281V13.1874H21.75V10.8126Z" fill="#FED953"/></symbol></defs></svg>