<svg width="24" height="24" viewBox="0 0 24 24" fill="none" xmlns="http://www.w3.org/2000/svg"><path d="M19.782 6.471a.417.417 0 100-.833.417.417 0 000 .833zM21.022 6.471a.416.416 0 10-.002-.832.416.416 0 00.002.832z" fill="currentColor" stroke="currentColor" stroke-width=".2" stroke-linecap="round"/><path d="M22.721 14.339c-.328 4.538-3.351 8.032-6.746 7.79a4.687 4.687 0 01-1.502-.366 2.136 2.136 0 00-1.702 0 4.66 4.66 0 01-1.5.365c-2.105.153-4.146-1.132-5.458-3.433a9.899 9.899 0 01-1.045-2.718 11.016 11.016 0 01-.243-1.638 9.735 9.735 0 011.417-5.997 5.465 5.465 0 014.143-2.677 4.842 4.842 0 012.695.607 1.805 1.805 0 001.688 0c.82-.459 1.756-.67 2.694-.606.396.029.788.108 1.164.236v2.351a.788.788 0 01-.781.782 2.047 2.047 0 00-1.448 3.497c.384.384.904.6 1.447.601.145 0 .291-.007.431-.021.046 0 .09-.01.135-.015.097-.012.194-.026.291-.043l.151-.03c.09-.02.18-.042.268-.066l.145-.041c.097-.03.194-.064.291-.097.035-.014.072-.025.108-.04.126-.051.25-.107.37-.169.037-.018.07-.039.106-.058.085-.046.17-.097.25-.144a3.35 3.35 0 00.335-.229c.05-.036.098-.072.144-.11.047-.037.119-.097.176-.147.057-.05.097-.08.138-.121.04-.042.115-.114.17-.172.056-.058.137-.147.203-.223.052-.06.104-.122.154-.185s.083-.115.125-.173a3.316 3.316 0 00.223-.35l.09-.16c.029-.053.07-.134.102-.202.033-.068.05-.111.074-.167.023-.055.061-.138.088-.208v-.01c.515 1.402.722 2.898.607 4.386h.002zM4.585 19.075a1.199 1.199 0 00-.352.855v.528a1.186 1.186 0 11-2.371 0v-.53a3.59 3.59 0 012.182-3.295l.02.07a11.53 11.53 0 00.346 1.04l.036.09a10.324 10.324 0 00.225.521c.072.156.148.31.228.463 0 .008.007.015.011.023-.12.059-.23.137-.325.232v.003zM18.71 9.416a1.635 1.635 0 00.485-1.165v-2.9a1.186 1.186 0 112.37 0v2.9a4.03 4.03 0 01-4.02 4.018 1.184 1.184 0 01-1.22-1.185 1.187 1.187 0 011.22-1.186 1.635 1.635 0 001.165-.485v.003zm3.713-1.165v-2.9a2.046 2.046 0 00-4.064-.341 5.51 5.51 0 00-1.135-.207 5.7 5.7 0 00-3.165.708l-.012.005a5.267 5.267 0 00-2.857-4.469c-.498-.24-.936.504-.436.744a4.417 4.417 0 012.427 3.717 5.701 5.701 0 00-3.158-.705A6.309 6.309 0 005.22 7.869a10.6 10.6 0 00-1.553 6.53c.034.466.095.928.183 1.386A4.455 4.455 0 001 19.928v.528a2.048 2.048 0 004.096 0v-.529a.338.338 0 01.258-.333A6.779 6.779 0 0010.936 23a5.518 5.518 0 002.175-.446 1.283 1.283 0 011.024 0 5.565 5.565 0 001.779.431c3.863.277 7.306-3.574 7.667-8.587a10.91 10.91 0 00-1.165-5.87c.006-.085.01-.176.01-.278l-.004.001z" fill="currentColor" stroke="currentColor" stroke-width=".2" stroke-linecap="round"/><path d="M7.142 15.295s.309 3.98 1.913 4.69M7.432 15.51s1.457 3.715 3.198 3.925" stroke="currentColor" stroke-linecap="round"/></svg>