<svg width="24" height="24" viewBox="0 0 24 24" fill="none" xmlns="http://www.w3.org/2000/svg"><path d="M21.88 10.68c-.565-2.834-2.537-4.821-4.797-4.821a10.085 10.085 0 00-3.694.618c-.268.1-.543.182-.823.244a4.701 4.701 0 01.701-2.208 3.128 3.128 0 011.814-1.494.376.376 0 00.23-.15.337.337 0 00.05-.262.338.338 0 00-.159-.218.377.377 0 00-.275-.048 3.775 3.775 0 00-2.16 1.617 5.708 5.708 0 00-2.881-2.48A7.155 7.155 0 007.352 1a5.48 5.48 0 00-2.154.391.354.354 0 00-.18.19.33.33 0 00.006.257 5.111 5.111 0 001.322 1.637 5.424 5.424 0 001.9 1.002c1.124.31 2.29.462 3.46.453.206 0 .388 0 .538-.01a5.233 5.233 0 00-.412 1.82 5.922 5.922 0 01-.858-.245 8.568 8.568 0 00-2.916-.564 8.305 8.305 0 00-2.283.338c-1.828.524-3.963 2.157-3.762 6.962.242 5.76 4.897 9.97 7.228 9.97a9.546 9.546 0 002.35-.241 3.39 3.39 0 01.632-.098c.347.01.692.056 1.029.137.54.12 1.092.189 1.646.204.155 0 .309-.008.462-.024 1.366-.148 3.825-2.15 5.17-4.797a12.813 12.813 0 001.35-7.703zM11.708 4.24a11.918 11.918 0 01-3.245-.423 4.654 4.654 0 01-2.58-1.924 5.353 5.353 0 011.472-.196c.776.005 1.544.15 2.263.426a5.026 5.026 0 012.47 2.112 8.694 8.694 0 01-.38.007V4.24zm8.163 13.842c-1.285 2.527-3.579 4.3-4.594 4.41-.126.013-.253.02-.38.02a8.036 8.036 0 01-1.502-.191 6.296 6.296 0 00-1.122-.153h-.078a4.02 4.02 0 00-.77.12 8.764 8.764 0 01-2.184.221c-1.762 0-6.262-3.708-6.497-9.304-.147-3.501.943-5.611 3.242-6.27.67-.2 1.369-.303 2.072-.308a7.908 7.908 0 012.675.524c.384.152.789.254 1.202.304.06 0 .121.005.18.005a4.455 4.455 0 001.526-.333 9.296 9.296 0 013.445-.577c1.903 0 3.58 1.75 4.079 4.256a12.113 12.113 0 01-1.294 7.278v-.002z" fill="currentColor" stroke="currentColor" stroke-width=".5"/><path d="M5.956 14.207s.327 4.008 2.028 4.723M6.263 14.423s1.545 3.742 3.39 3.953" stroke="currentColor" stroke-linecap="round"/></svg>