<svg width="24" height="24" viewBox="0 0 24 24" fill="none" xmlns="http://www.w3.org/2000/svg"><path d="M21.88 10.535c-.565-2.984-2.537-5.075-4.797-5.075a9.632 9.632 0 00-3.694.651c-.268.105-.543.19-.823.256.044-.82.285-1.616.701-2.324a3.17 3.17 0 011.814-1.572.365.365 0 00-.154-.714 3.8 3.8 0 00-2.16 1.702A5.803 5.803 0 009.885.848 6.84 6.84 0 007.352.347a5.239 5.239 0 00-2.154.411.365.365 0 00-.174.47 5.338 5.338 0 003.222 2.778c1.124.326 2.29.487 3.46.478.206 0 .388 0 .538-.012a5.753 5.753 0 00-.412 1.917 5.696 5.696 0 01-.858-.258 8.193 8.193 0 00-2.916-.594 7.922 7.922 0 00-2.283.356c-1.828.551-3.963 2.27-3.762 7.328.242 6.063 4.897 10.494 7.228 10.494a9.085 9.085 0 002.35-.253c.207-.055.419-.09.632-.103.347.01.692.059 1.029.144.54.127 1.092.2 1.646.215.155 0 .309-.008.462-.026 1.366-.155 3.825-2.263 5.17-5.049a14.104 14.104 0 001.35-8.108zM11.708 3.756c-1.098.01-2.19-.14-3.245-.445a4.684 4.684 0 01-2.58-2.026c.478-.14.974-.21 1.472-.206a6.123 6.123 0 012.263.449 5.108 5.108 0 012.47 2.223 8.256 8.256 0 01-.38.007v-.002zm8.163 14.57c-1.285 2.66-3.579 4.527-4.594 4.642a3.39 3.39 0 01-.38.02 7.668 7.668 0 01-1.502-.2 5.996 5.996 0 00-1.122-.16h-.078c-.26.015-.518.057-.77.125a8.34 8.34 0 01-2.184.234c-1.762 0-6.262-3.904-6.497-9.795-.147-3.685.943-5.906 3.242-6.6.67-.21 1.369-.319 2.072-.323.917.02 1.824.206 2.675.551.384.16.789.268 1.202.32.06 0 .121.005.18.005a4.267 4.267 0 001.526-.35 8.879 8.879 0 013.445-.608c1.903 0 3.58 1.843 4.079 4.48a13.333 13.333 0 01-1.294 7.661v-.002z" fill="currentColor" stroke="currentColor" stroke-width=".5"/></svg>