<svg width="24" height="24" viewBox="0 0 24 24" fill="none" xmlns="http://www.w3.org/2000/svg"><g clip-path="url(#clip0)" fill="currentColor"><path d="M11.996 16.373a6.475 6.475 0 116.475-6.475 6.483 6.483 0 01-6.475 6.475zm0-11.61a5.134 5.134 0 100 10.268 5.134 5.134 0 000-10.267z"/><path d="M12 19.792l-.04-.002a4.188 4.188 0 01-1.903-.59 3.116 3.116 0 00-.527-.227 3.743 3.743 0 00-.56-.054 3.436 3.436 0 01-3.31-1.96 1.836 1.836 0 00-.752-.739 3.452 3.452 0 01-1.93-3.36 3.567 3.567 0 00-.075-.563 3.415 3.415 0 00-.219-.478 3.492 3.492 0 01.033-3.9 3.45 3.45 0 00.205-.494 3.62 3.62 0 00.054-.558 3.437 3.437 0 011.96-3.31c.315-.174.572-.436.739-.754a3.46 3.46 0 013.36-1.93c.19-.009.377-.034.562-.074.165-.06.325-.134.479-.219a3.49 3.49 0 013.9.033c.158.081.322.15.491.204.185.033.373.052.561.056A3.43 3.43 0 0118.34 2.83c.173.315.435.572.753.74a3.452 3.452 0 011.93 3.36 3.5 3.5 0 00.075.562c.06.165.134.326.22.48a3.49 3.49 0 01-.034 3.9c-.08.158-.15.322-.204.491a3.589 3.589 0 00-.055.561 3.434 3.434 0 01-1.96 3.31 1.832 1.832 0 00-.738.753 3.456 3.456 0 01-3.363 1.932c-.19.01-.377.035-.563.075a3.573 3.573 0 00-.48.22 4.162 4.162 0 01-1.88.575l-.04.002zm-3.067-2.213c.318.001.635.035.945.1.295.09.58.21.85.359.386.235.822.375 1.272.41.442-.033.87-.168 1.25-.396.255-.142.524-.26.801-.35.311-.073.629-.114.948-.122a2.144 2.144 0 002.127-1.195 3.207 3.207 0 011.334-1.348 2.126 2.126 0 001.223-2.075c.001-.318.035-.635.101-.947.09-.295.21-.58.36-.85a2.194 2.194 0 00.032-2.488 4.43 4.43 0 01-.374-.835 4.606 4.606 0 01-.12-.949 2.144 2.144 0 00-1.193-2.125 3.205 3.205 0 01-1.348-1.335 2.116 2.116 0 00-2.075-1.221 4.64 4.64 0 01-.947-.101 4.405 4.405 0 01-.848-.359 2.193 2.193 0 00-2.49-.033 4.417 4.417 0 01-.836.374 4.619 4.619 0 01-.948.12 2.134 2.134 0 00-2.124 1.192 3.206 3.206 0 01-1.335 1.349 2.127 2.127 0 00-1.222 2.075c-.001.318-.035.634-.101.945-.09.295-.21.579-.358.849a2.198 2.198 0 00-.034 2.49c.153.265.279.545.374.836.073.311.113.629.12.948a2.144 2.144 0 001.193 2.125 3.204 3.204 0 011.348 1.334 2.127 2.127 0 002.075 1.223z"/><path d="M7.986 24a.67.67 0 01-.53-.26L6.28 22.22l-1.968.03a.708.708 0 01-.58-.304.67.67 0 01-.045-.654l2.061-4.355a.67.67 0 111.213.574l-1.594 3.368.829-.023a1.395 1.395 0 011.146.545l.506.654 1.593-3.366a.671.671 0 011.212.574l-2.06 4.353a.67.67 0 01-.607.384zM16.043 24a.669.669 0 01-.606-.384l-2.061-4.353a.671.671 0 011.212-.574l1.593 3.365.507-.654a1.436 1.436 0 011.145-.544l.83.023-1.594-3.368a.67.67 0 111.212-.574l2.061 4.356a.67.67 0 01-.044.653.713.713 0 01-.58.304l-1.921-.053-1.224 1.543a.67.67 0 01-.53.26z"/></g><defs><clipPath id="clip0"><path fill="currentColor" d="M0 0h24v24H0z"/></clipPath></defs></svg>