<svg width="24" height="24" viewBox="0 0 24 24" fill="none" xmlns="http://www.w3.org/2000/svg"><g clip-path="url(#clip0)" fill="currentColor"><path d="M9.1 18.734l5.094-.015a.559.559 0 00.558-.558v-4.615a.559.559 0 00-.558-.558H9.1v5.746zm1.127-1.146v-3.484h3.404v3.484h-3.405z"/><path d="M16.441 11.7a5.379 5.379 0 00-1.56-4.037 1.706 1.706 0 01-.501-1.141v-5.01a1.44 1.44 0 00-1.488-1.51h-1.79a1.452 1.452 0 00-1.029.379 1.425 1.425 0 00-.457 1.122v5.011a1.74 1.74 0 01-.509 1.164 5.397 5.397 0 00-1.549 4.018v10.737a1.493 1.493 0 001.631 1.56l5.61-.001a1.505 1.505 0 001.645-1.552c-.003-.681-.003-8.752-.003-10.74zM10.742 1.479a.308.308 0 01.337-.352h1.829a.315.315 0 01.347.28.444.444 0 01-.002.096v3.682h-2.509l-.002-3.706zm2.514 4.831v.214a2.8 2.8 0 00.857 1.958 4.364 4.364 0 011.202 3.214V22.44c0 .263-.084.426-.503.426H9.19c-.421 0-.504-.156-.504-.426V11.689A4.376 4.376 0 019.88 8.5c.537-.52.848-1.232.865-1.98v-.21h.827v-.164h.798v.164h.887z"/></g><defs><clipPath id="clip0"><path fill="currentColor" d="M0 0h24v24H0z"/></clipPath></defs></svg>