<svg width="24" height="24" viewBox="0 0 24 24" fill="none" xmlns="http://www.w3.org/2000/svg"><path d="M22.696 9.566c-.006 0-11.934-4.17-12.234-4.277A3.273 3.273 0 006.12 7.937c-.08.593-1.808 12.823-1.81 12.83a1.973 1.973 0 003.842.847c.321-.866 1.534-4.274 3.421-9.617 8.074 1.112 9.782 1.332 10.142 1.374.466.082.946-.012 1.346-.264a1.977 1.977 0 00-.365-3.541zM5.705 21.376a.635.635 0 01-.096-.418c.03-.183.21-1.45.446-3.121l1.893.46a300.422 300.422 0 01-1.027 2.86.664.664 0 01-1.216.218zm5.749-14.348c1.607.56 4.297 1.505 6.595 2.309l-.522 2.15c-1.52-.21-3.562-.486-6.303-.864a.656.656 0 00-.709.432c-.918 2.601-1.607 4.545-2.122 5.998l-2.151-.522c.34-2.411.736-5.235.972-6.92l.184-1.312a1.983 1.983 0 012.804-1.71l1.252.439zm10.416 5.04c-.21-.024-.883-.11-3.037-.402l.46-1.893c1.593.556 2.804.977 2.977 1.035a.662.662 0 01-.4 1.26zM.613 9.164a.613.613 0 01-.589-.784A8.966 8.966 0 016.4 2.21.615.615 0 116.7 3.402a7.735 7.735 0 00-5.5 5.32.613.613 0 01-.588.442zM2.589 10.224a.613.613 0 01-.595-.76 8.891 8.891 0 01.737-1.952.613.613 0 011.088.565 7.671 7.671 0 00-.635 1.682.613.613 0 01-.595.465z" fill="currentColor"/></svg>