<svg width="24" height="24" viewBox="0 0 24 24" fill="none" xmlns="http://www.w3.org/2000/svg"><path d="M21.888 22.69H2.573A.573.573 0 012 22.117V5.011a.573.573 0 01.573-.573h19.313a.573.573 0 01.573.573v17.11a.573.573 0 01-.571.57zm-18.74-1.15h18.165V5.584H3.149L3.148 21.54z" fill="currentColor" stroke="currentColor" stroke-width=".5"/><path d="M21.152 10.184H3.31a.575.575 0 110-1.15h17.842a.575.575 0 010 1.15zM7.54 7.046a.573.573 0 01-.573-.573V2.519a.575.575 0 011.15 0v3.954a.573.573 0 01-.577.573zM12.23 7.046a.574.574 0 01-.573-.573V2.519a.575.575 0 011.15 0v3.954a.573.573 0 01-.577.573zM16.92 7.046a.573.573 0 01-.573-.573V2.519a.575.575 0 111.15 0v3.954a.571.571 0 01-.577.573z" fill="currentColor" stroke="currentColor" stroke-width=".5"/></svg>