<svg width="24" height="24" viewBox="0 0 24 24" fill="none" xmlns="http://www.w3.org/2000/svg"><path d="M15.9 6.498V3H8.096v3.498H1v14.7h22v-14.7h-7.1z" stroke="currentColor" stroke-width="1.5" stroke-linecap="round" stroke-linejoin="round"/><path d="M16.966 13.591a4.85 4.85 0 01-.838 2.72 4.953 4.953 0 01-2.23 1.803 5.033 5.033 0 01-2.87.278 4.99 4.99 0 01-2.542-1.34 4.877 4.877 0 01-1.36-2.508 4.834 4.834 0 01.284-2.83 4.913 4.913 0 011.829-2.198 5.018 5.018 0 016.27.612 4.87 4.87 0 011.457 3.463v0z" stroke="currentColor" stroke-width="1.5" stroke-miterlimit="10"/></svg>