<svg width="24" height="24" viewBox="0 0 24 24" fill="none" xmlns="http://www.w3.org/2000/svg"><g clip-path="url(#clip0)" fill="currentColor"><path d="M17.247 6.989l-6.214 7.184-3.47-4.463c-.75-1.22-3.59.993-3.102 2.243l4.515 6.528c1.2 1.804 2.888 1.42 3.878-.09 0 0 10.86-15.776 10.436-16.113-1.044-.83-2.39.7-6.043 4.711z"/><path d="M12 1.655a10.277 10.277 0 00-7.315 3.03A10.277 10.277 0 001.655 12c0 2.763 1.076 5.361 3.03 7.315A10.277 10.277 0 0012 22.345c2.763 0 5.361-1.076 7.315-3.03A10.277 10.277 0 0022.345 12c0-2.763-1.076-5.361-3.03-7.315A10.277 10.277 0 0012 1.655zM12 0c6.627 0 12 5.373 12 12s-5.373 12-12 12S0 18.627 0 12 5.373 0 12 0z"/></g><defs><clipPath id="clip0"><path fill="currentColor" d="M0 0h24v24H0z"/></clipPath></defs></svg>