<svg width="24" height="24" viewBox="0 0 24 24" fill="none" xmlns="http://www.w3.org/2000/svg"><path d="M22.266 11.853a.885.885 0 00.525-.335c.133-.179.205-.396.205-.62V9.68a.287.287 0 000-.054V9.58a.227.227 0 00-.017-.063.446.446 0 00-.099-.206.47.47 0 00-.193-.156l-8.622-4.092a1.13 1.13 0 00-.79-.065 1.23 1.23 0 00-.664.46c-.146.19-.343.336-.568.421-.22.082-.46.094-.687.036a1.208 1.208 0 01-.604-.353 1.43 1.43 0 01-.345-.652 1.582 1.582 0 01-.032-.535 1.421 1.421 0 00-.146-.834 1.27 1.27 0 00-.588-.572l-1.739-.823a1.42 1.42 0 00-1.198-.024 8.94 8.94 0 00-1.98 1.167A9.586 9.586 0 003.06 4.946a10.446 10.446 0 00-1.248 2.058 10.889 10.889 0 00-.766 2.327L1 9.566v9.973c-.003.456.165.897.47 1.236a1.54 1.54 0 001.146.517h9.794a.856.856 0 00.57-.223.993.993 0 00.308-.563 1.03 1.03 0 01.32-.568.841.841 0 011.143 0c.165.15.277.348.321.566a.991.991 0 00.306.568.86.86 0 00.572.223h5.456a1.539 1.539 0 001.123-.521c.306-.339.474-.78.471-1.236V14.76c0-.221-.073-.437-.205-.615a.884.884 0 00-.516-.336.91.91 0 01-.519-.346 1.073 1.073 0 010-1.264.906.906 0 01.506-.346zM7.489 3.19l1.739.824a.17.17 0 01.08.079c.02.039.026.083.019.126-.035.32-.015.644.06.958.103.445.321.855.631 1.19.299.32.683.55 1.107.658.419.105.859.081 1.264-.067a2.352 2.352 0 001.044-.775.179.179 0 01.209-.07l6.297 2.989H2.202A9.551 9.551 0 013.89 5.677 8.501 8.501 0 015.36 4.213 7.969 7.969 0 017.11 3.18a.462.462 0 01.378.01zm13.457 8.294a2.299 2.299 0 00.008 2.706c.25.334.6.58.998.706v4.635a.638.638 0 01-.164.431.525.525 0 01-.387.177l-5.324-.014a2.186 2.186 0 00-.658-1.1 1.852 1.852 0 00-2.498.014 2.19 2.19 0 00-.65 1.09H2.616a.526.526 0 01-.387-.175.639.639 0 01-.163-.432V10.23h19.881l-.008.512c-.402.135-.75.396-.992.744l-.001-.001z" fill="currentColor"/><path d="M14.376 11.076a2.62 2.62 0 100 5.24 2.62 2.62 0 000-5.24zm-.025.98h.054a1.647 1.647 0 01-.03 3.283 1.647 1.647 0 01-1.647-1.647 1.63 1.63 0 011.62-1.647l.003.01zM5.521 16.601h-.056a1.294 1.294 0 10.056 0zm.402 1.765a.572.572 0 11-.403-.978h.101a.6.6 0 01.471.575.576.576 0 01-.17.409l.001-.006z" fill="currentColor"/></svg>