<svg width="24" height="24" viewBox="0 0 24 24" fill="none" xmlns="http://www.w3.org/2000/svg"><path d="M17.202 1H6.797c-.476 0-.933.182-1.27.504-.337.323-.526.76-.527 1.216v18.107c0 .456.19.893.527 1.216.337.322.794.504 1.27.504h.12v.09c0 .097.04.189.111.257a.387.387 0 00.536 0 .354.354 0 00.11-.256v-.09h8.652v.09c0 .096.04.188.11.256a.387.387 0 00.535 0 .354.354 0 00.111-.256v-.09h.12c.477-.001.934-.183 1.271-.505.337-.323.527-.76.527-1.216V2.72c0-.456-.19-.893-.527-1.216A1.841 1.841 0 0017.202 1zm1.04 19.827c0 .264-.11.517-.305.704-.195.186-.46.292-.735.292H6.797c-.275 0-.54-.106-.735-.292a.976.976 0 01-.305-.704V2.72c0-.264.11-.517.305-.704.195-.186.46-.291.735-.292h10.405c.276 0 .54.106.735.292.195.187.305.44.306.704v18.107z" fill="currentColor"/><path d="M16.615 11.103h-.659l.204-.21a.404.404 0 00-.018-.541.38.38 0 00-.526-.019l-.751.774h-.65a2.332 2.332 0 00-.773-1.379l.325-.58 1.026-.279a.38.38 0 00.234-.185.404.404 0 00-.14-.54.377.377 0 00-.293-.04l-.283.078.33-.588a.405.405 0 00-.142-.541.378.378 0 00-.525.145l-.33.588-.075-.291a.402.402 0 00-.176-.255.378.378 0 00-.54.148.407.407 0 00-.027.312l.271 1.057-.324.578a2.187 2.187 0 00-1.547 0l-.324-.578.272-1.057a.406.406 0 00-.048-.29.387.387 0 00-.23-.177.376.376 0 00-.283.035.394.394 0 00-.183.227l-.075.29-.33-.587a.392.392 0 00-.233-.185.374.374 0 00-.405.142.401.401 0 00-.028.44l.33.587-.283-.078A.374.374 0 009 8.246a.401.401 0 00-.028.44.393.393 0 00.234.184l1.026.28.325.579c-.408.35-.682.84-.774 1.379h-.649l-.751-.774a.388.388 0 00-.277-.136.375.375 0 00-.286.116.398.398 0 00-.113.294.406.406 0 00.132.286l.204.21h-.66a.38.38 0 00-.271.116.403.403 0 000 .56.38.38 0 00.272.116h.659l-.204.21a.404.404 0 00.018.542.38.38 0 00.526.018l.751-.774h.65a2.33 2.33 0 00.773 1.38l-.325.579-1.026.28a.379.379 0 00-.234.184.404.404 0 00.14.541.376.376 0 00.293.04l.282-.078-.33.588a.404.404 0 00.142.541.378.378 0 00.525-.145l.33-.588.075.291c.022.084.07.159.138.212a.379.379 0 00.567-.116c.051-.091.065-.2.039-.3l-.272-1.058.324-.578c.5.189 1.048.189 1.547 0l.324.578-.271 1.057a.407.407 0 00.038.3.387.387 0 00.333.199.378.378 0 00.235-.082.397.397 0 00.137-.212l.075-.29.33.587a.392.392 0 00.233.184.373.373 0 00.292-.039.388.388 0 00.18-.24.407.407 0 00-.039-.301l-.33-.588.284.078a.375.375 0 00.405-.142.4.4 0 00.028-.44.392.392 0 00-.234-.184l-1.026-.28-.325-.579a2.33 2.33 0 00.774-1.379h.649l.751.774a.379.379 0 00.526-.018.402.402 0 00.018-.542l-.204-.21h.66a.38.38 0 00.271-.116.403.403 0 000-.56.38.38 0 00-.272-.116v-.001zm-4.61 1.918c-.292 0-.578-.09-.82-.257a1.512 1.512 0 01-.545-.682 1.563 1.563 0 01-.084-.88c.057-.294.198-.565.404-.778.207-.213.47-.357.757-.416.286-.059.583-.029.853.086.27.116.5.31.663.56a1.553 1.553 0 01-.184 1.92 1.458 1.458 0 01-1.044.446z" fill="currentColor"/></svg>