<svg width="24" height="24" viewBox="0 0 24 24" fill="none" xmlns="http://www.w3.org/2000/svg"><g clip-path="url(#clip0)"><path d="M23.149 17.459a1.072 1.072 0 00-.015-.32 1.02 1.02 0 00.617-.915c.073-1.167.008-2.34-.195-3.492a14.653 14.653 0 00-1.28-2.936 1.019 1.019 0 00-.158-.223 1.693 1.693 0 00.036-1.75 13.404 13.404 0 00-4.576-4.109 13.29 13.29 0 00-5.833-1.895 1.687 1.687 0 00-1.495.905.997.997 0 00-.266-.025 14.052 14.052 0 00-3.173.358 15.06 15.06 0 00-3.136 1.584 1.02 1.02 0 00-.484.987 1.134 1.134 0 00-.286.148c-1.618 1.144-3.98 6.445-1.484 7.886a2.236 2.236 0 002.542-.227 6.71 6.71 0 011.717-1.708.885.885 0 00.619.265c.263.11.515.244.754.4a4.053 4.053 0 001.628.665 1.816 1.816 0 00.891 1.415l2.712 1.566a1.815 1.815 0 001.67.064c.347.41.77.746 1.247.991.305.156.598.336.875.538a.87.87 0 00.537.403c.07 1.073-.539 1.769-.618 2.345a2.266 2.266 0 001.075 2.313c2.443 1.41 5.856-3.14 6.084-5.23l-.005-.003zm-19.83-4.83a1.273 1.273 0 01-1.389.14C.46 11.92 2.02 7.733 3.52 6.581c.01.022 1.671 4.236 1.671 4.236A5.692 5.692 0 003.32 12.63zm4.407-1.033l-.33-.19a2.629 2.629 0 00-1.054-.436L4.206 5.51a8.542 8.542 0 015.825-1.789l-1.246 8.325c-.38-.075-.74-.23-1.059-.45zm5.068 3.553l-.926-.543a4.31 4.31 0 01-.886-.511l-.896-.507a.792.792 0 01-.385-.729l1.426-9.558a.619.619 0 01.632-.46c1.882.182 3.7.784 5.316 1.764a12.553 12.553 0 014.186 3.722.619.619 0 01-.082.777l-7.563 6.016a.792.792 0 01-.823.03zm3.23 1.237l-.33-.19a2.8 2.8 0 01-.92-.692l.902-.717 5.688-4.526a8.538 8.538 0 011.364 5.94l-5.796.875a2.622 2.622 0 00-.905-.695l-.003.005zm1.556 5.413a1.234 1.234 0 01-.574-1.272 5.666 5.666 0 00.628-2.525l4.501-.672c-.177 1.753-3.052 5.343-4.558 4.474" fill="currentColor"/></g><defs><clipPath id="clip0"><path fill="currentColor" d="M0 0h24v24H0z"/></clipPath></defs></svg>