<svg width="24" height="24" viewBox="0 0 24 24" fill="none" xmlns="http://www.w3.org/2000/svg"><path d="M6.499 6.362a.289.289 0 00.283.294h.925A.289.289 0 008 6.374v-.528h.987a.906.906 0 01.907.907V9.32a.907.907 0 01-.907.907H5.475a.906.906 0 01-.903-.912V6.748a.907.907 0 01.906-.907H6.5l-.001.521zM14.48 4.56a.41.41 0 00.411.414h1.115a.411.411 0 00.417-.406v-.847h1.995a.984.984 0 01.985.985v4.528a.985.985 0 01-.985.985h-5.925a.986.986 0 01-.986-.985V4.707a.985.985 0 01.985-.985h1.991l-.002.838z" stroke="currentColor" stroke-linecap="round" stroke-linejoin="round"/><path d="M3.971 20.352V15.7a.978.978 0 01.976-.978h2.031v.853a.418.418 0 00.411.421h1.125a.418.418 0 00.422-.41v-.863h2.03a.978.978 0 01.98.977v4.652a.978.978 0 01-.979.978H4.946a.979.979 0 01-.975-.978z" stroke="currentColor" stroke-linejoin="round"/><path d="M2 2v20.533M21.947 2v20.533M21.5 10.45H2.571M21.5 21.4H2.571" stroke="currentColor" stroke-linecap="round" stroke-linejoin="round"/><path d="M9.384 18.405a.155.155 0 00.136.09h.215v1.357a.157.157 0 00.137.137h.313a.157.157 0 00.137-.137.016.016 0 000-.012v-1.345h.2a.16.16 0 00.137-.089.157.157 0 00-.017-.162l-.508-.587-.01-.007a.145.145 0 00-.1-.046.143.143 0 00-.103.04l-.006.006-.01.008-.508.587a.156.156 0 00-.013.16zM7.929 18.498h.215v1.345a.03.03 0 000 .01.156.156 0 00.137.138h.313a.156.156 0 00.137-.137.03.03 0 000-.01v-1.346h.215a.152.152 0 00.133-.086.167.167 0 00-.026-.163l-.493-.587-.008-.006a.15.15 0 00-.209 0l-.01.008-.508.586a.156.156 0 00-.026.16.152.152 0 00.13.088z" fill="currentColor"/></svg>