<svg width="24" height="24" viewBox="0 0 24 24" fill="none" xmlns="http://www.w3.org/2000/svg"><path d="M23 11.214c0 1.323-.202 2.534-.605 3.633-.404 1.1-.973 1.952-1.706 2.558a3.864 3.864 0 01-2.532.908c-.789 0-1.454-.242-1.995-.727-.541-.484-.862-1.104-.963-1.858h-.11c-.367.81-.895 1.444-1.582 1.9-.68.457-1.486.685-2.422.685-1.376 0-2.454-.475-3.233-1.425-.77-.96-1.156-2.26-1.156-3.899 0-1.9.541-3.442 1.624-4.625 1.082-1.192 2.504-1.789 4.265-1.789.623 0 1.33.06 2.119.182.788.112 1.5.27 2.132.475l-.344 6.567v.308c0 1.658.61 2.487 1.83 2.487.835 0 1.514-.498 2.036-1.495.523-1.006.785-2.31.785-3.912 0-1.687-.34-3.163-1.018-4.43a7.018 7.018 0 00-2.904-2.92c-1.247-.69-2.682-1.034-4.306-1.034-2.045 0-3.825.433-5.338 1.3-1.514.856-2.67 2.086-3.468 3.688-.798 1.593-1.197 3.437-1.197 5.533 0 2.842.739 5.026 2.216 6.554 1.476 1.528 3.604 2.291 6.384 2.291 1.926 0 3.925-.4 5.998-1.201v1.858C15.75 23.61 13.75 24 11.512 24c-3.33 0-5.917-.927-7.76-2.78C1.917 19.355 1 16.756 1 13.421c0-2.422.49-4.578 1.472-6.47.982-1.89 2.38-3.353 4.197-4.387C8.485 1.522 10.567 1 12.915 1c1.972 0 3.724.424 5.256 1.272a8.664 8.664 0 013.563 3.59C22.578 7.41 23 9.194 23 11.215zM8.774 13.045c0 2.366.894 3.55 2.683 3.55 1.898 0 2.93-1.459 3.095-4.374l.193-3.647a7.933 7.933 0 00-2.16-.28c-1.193 0-2.128.42-2.807 1.258-.67.838-1.004 2.003-1.004 3.493z" fill="currentColor"/></svg>