<svg width="24" height="24" viewBox="0 0 24 24" fill="none" xmlns="http://www.w3.org/2000/svg"><g clip-path="url(#clip0)"><path d="M22.796 9.291a.802.802 0 01-1.368-.568V2.465h-6.259a.801.801 0 110-1.604l7.06.001a.803.803 0 01.802.802v7.06a.799.799 0 01-.235.567zM9.292 22.762a.801.801 0 00-.568-1.368H2.466v-6.26a.802.802 0 00-1.605 0l.001 7.06a.803.803 0 00.802.802h7.06a.8.8 0 00.568-.234z" fill="currentColor"/><path stroke="currentColor" stroke-width="1.5" d="M2.47 21.47l19-19"/></g><defs><clipPath id="clip0"><path fill="currentColor" d="M0 0h24v24H0z"/></clipPath></defs></svg>