<svg width="24" height="24" viewBox="0 0 24 24" fill="none" xmlns="http://www.w3.org/2000/svg"><g clip-path="url(#a)"><path d="M19 16.9001C20.2151 16.6533 21.2953 15.9639 22.0307 14.9655C22.7661 13.9672 23.1043 12.7312 22.9797 11.4976C22.8551 10.2639 22.2765 9.12052 21.3563 8.28943C20.4361 7.45834 19.2399 6.99881 18 7.00006H16.74C16.4087 5.71737 15.764 4.53705 14.8639 3.56504C13.9638 2.59304 12.8363 1.85979 11.5828 1.43112C10.3293 1.00245 8.98897 0.891787 7.68213 1.10906C6.37529 1.32634 5.14287 1.86475 4.0955 2.67596C3.04814 3.48718 2.21862 4.54579 1.68143 5.75677C1.14424 6.96774 0.916185 8.29317 1.01775 9.61405C1.11931 10.9349 1.54731 12.2099 2.26332 13.3245C2.97932 14.4391 3.96093 15.3585 5.12 16.0001" stroke="currentColor" stroke-width="2" stroke-linecap="round" stroke-linejoin="round"/><path d="M13 11L9 17H15L11 23" stroke="currentColor" stroke-width="2" stroke-linecap="round" stroke-linejoin="round"/></g><defs><clipPath id="a"><path fill="currentColor" d="M0 0H24V24H0z"/></clipPath></defs></svg>