<svg width="24" height="24" viewBox="0 0 24 24" fill="none" xmlns="http://www.w3.org/2000/svg"><g clip-path="url(#a)"><path d="M19.0001 16.9001C20.2152 16.6533 21.2953 15.9639 22.0307 14.9655C22.7662 13.9672 23.1044 12.7312 22.9798 11.4976C22.8552 10.2639 22.2766 9.12052 21.3564 8.28943C20.4362 7.45834 19.24 6.99881 18.0001 7.00006H16.7401C16.4087 5.71737 15.7641 4.53705 14.864 3.56504C13.9638 2.59304 12.8364 1.85979 11.5829 1.43112C10.3294 1.00245 8.98903 0.891787 7.68219 1.10906C6.37535 1.32634 5.14293 1.86475 4.09556 2.67596C3.0482 3.48718 2.21868 4.54579 1.68149 5.75677C1.1443 6.96774 0.916246 8.29317 1.01781 9.61405C1.11937 10.9349 1.54737 12.2099 2.26338 13.3245C2.97939 14.4391 3.96099 15.3585 5.12006 16.0001" stroke="currentColor" stroke-width="2" stroke-linecap="round" stroke-linejoin="round"/><path d="M13 11L9 17H15L11 23" stroke="currentColor" stroke-width="2" stroke-linecap="round" stroke-linejoin="round"/></g><defs><clipPath id="a"><path fill="currentColor" d="M0 0H24V24H0z"/></clipPath></defs></svg>