<svg width="24" height="24" viewBox="0 0 24 24" fill="none" xmlns="http://www.w3.org/2000/svg"><path d="M10.557 8.728h.016a.42.42 0 10-.054-.84 2.232 2.232 0 00-1.207 4.039 2.232 2.232 0 001.207 4.037.425.425 0 00.44-.4v-.002a.42.42 0 00-.402-.437 1.383 1.383 0 01-1.33-1.385l.002.004a1.39 1.39 0 011.328-1.398.42.42 0 000-.84 1.391 1.391 0 010-2.778z" fill="currentColor"/><path d="M23.993 11.037l-.005.013a2.092 2.092 0 00-1.887-2.246 2.441 2.441 0 00-1.126.334 8.963 8.963 0 00-8.057-5.323 9.464 9.464 0 00-8.904 6.076l-1.96-1.8a1.085 1.085 0 00-1.425-.205 1.172 1.172 0 00-.483 1.55c.25.52 1.21 2.421 1.21 2.421S.369 13.915.14 14.417a1.152 1.152 0 00.685 1.657 1.28 1.28 0 001.37-.388l.03-.037c.47-.449 1.705-1.62 1.705-1.62.716 2.763 4.11 6.156 8.99 6.156a9.139 9.139 0 007.994-5.118 2.41 2.41 0 001.191.385 2.094 2.094 0 001.887-2.252 2.469 2.469 0 010-2.162zM3.717 13.075s-1.703 1.6-2.078 1.978l.001-.001a.597.597 0 01-.633.181c-.14-.063-.222-.213-.111-.446l1.39-2.933S1.008 9.313.893 9.067a.372.372 0 01.138-.432c.14-.117.28-.12.608.165l2.125 2.023a6.664 6.664 0 00-.047 2.251zm9.196 6.28l.003-.004c-4.31 0-8.431-3.205-8.431-7.267 0-4.063 4.121-7.432 8.431-7.432.343.002.685.03 1.024.081a2.343 2.343 0 00-.921 2.03 3.248 3.248 0 001.32 2.62 3.257 3.257 0 00-.018 5.22 3.25 3.25 0 00-1.303 2.606 2.5 2.5 0 001.056 2.03c-.383.07-.771.108-1.16.116zm7.517-5.1a7.024 7.024 0 01-4.58 4.482h-.002a1.55 1.55 0 01-1.99-1.522 2.399 2.399 0 01.967-1.933.841.841 0 000-1.347 2.416 2.416 0 01.015-3.874.843.843 0 000-1.352 2.394 2.394 0 01-.98-1.945c0-.696.222-1.922 2.134-1.397a7.024 7.024 0 014.436 8.887zm1.67.361a1.711 1.711 0 01-.868-.332 6.874 6.874 0 00.415-2.196 8.179 8.179 0 00-.366-2.157c.244-.163.526-.263.819-.289.577 0 1.046.676 1.046 1.405a1.535 1.535 0 000 2.162h.001c0 .733-.469 1.407-1.046 1.407z" fill="currentColor"/><path d="M17.06 11.2a.6.6 0 100-1.2.6.6 0 000 1.2z" fill="currentColor"/></svg>