<svg width="24" height="24" viewBox="0 0 24 24" fill="none" xmlns="http://www.w3.org/2000/svg"><path d="M19.637 20.003a767.723 767.723 0 01-6.361-5.638A799.079 799.079 0 006.988 8.79a3.115 3.115 0 00-.067-1.716 3.055 3.055 0 00-.963-1.408.097.097 0 00-.02-.022l-.04-.03C1.409 2.079 1.362 2.167 1.297 2.29a.185.185 0 00-.017.1c.021.156.406.534 2.424 2.386.559.513 1.136 1.043 1.646 1.522l-.097.18c-.533-.434-1.128-.932-1.703-1.413C.968 2.907.953 2.935.872 3.088c-.081.152-.098.183 2.34 2.577.55.541 1.12 1.099 1.621 1.605l-.096.18c-.533-.468-1.127-.998-1.702-1.515C.545 3.705.529 3.733.447 3.888c-.082.155-.094.18 2.286 2.681.537.565 1.092 1.149 1.582 1.672l-.098.183c-.505-.475-1.07-1.016-1.615-1.538C.603 4.967.206 4.613.085 4.636a.111.111 0 00-.065.054c-.076.141-.104.194 3.29 3.975.268.297.492.547.642.716.145.2.33.367.542.49a1.728 1.728 0 002.038-.223c1.614 1.633 3.864 3.874 6.038 6.042 2.208 2.2 4.49 4.474 6.117 6.12.13.12.3.188.476.19a.815.815 0 00.405-.13.837.837 0 00.288-.32 1.431 1.431 0 00-.219-1.547z" fill="currentColor"/><path d="M23.976 4.437a.11.11 0 00-.065-.054c-.119-.024-.518.33-2.521 2.255-.545.523-1.107 1.063-1.612 1.538l-.098-.183c.49-.527 1.048-1.11 1.585-1.676 2.38-2.501 2.365-2.529 2.284-2.681-.082-.153-.095-.184-2.574 2.037-.58.52-1.18 1.057-1.717 1.526l-.096-.18c.502-.504 1.071-1.062 1.622-1.605 2.437-2.392 2.423-2.42 2.34-2.576-.084-.156-.098-.18-2.676 1.975-.577.482-1.172.98-1.706 1.415l-.096-.18c.51-.48 1.087-1.009 1.647-1.522 2.017-1.85 2.402-2.23 2.423-2.386a.186.186 0 00-.016-.1c-.066-.117-.119-.215-4.644 3.356a.095.095 0 00-.02.021c-.446.366-.78.854-.963 1.408a3.115 3.115 0 00-.066 1.716c-1.703 1.48-4.038 3.565-6.3 5.583a902.488 902.488 0 01-6.353 5.634 1.43 1.43 0 00-.208 1.552.825.825 0 00.286.312c.12.077.258.12.4.127a.73.73 0 00.485-.196 1180.87 1180.87 0 016.052-6.056c2.198-2.19 4.47-4.454 6.098-6.102a1.72 1.72 0 002.039.223c.212-.123.396-.29.542-.49.148-.168.37-.415.634-.709 3.398-3.787 3.37-3.84 3.294-3.982z" fill="currentColor"/></svg>