<svg width="24" height="24" viewBox="0 0 24 24" fill="none" xmlns="http://www.w3.org/2000/svg"><path d="M21.243 4H2.756a1.742 1.742 0 00-1.242.519A1.773 1.773 0 001 5.772v12.124a1.785 1.785 0 00.514 1.252 1.754 1.754 0 001.242.52h.903v.092a.375.375 0 00.37.373.368.368 0 00.37-.373v-.093h15.203v.093a.368.368 0 10.74 0v-.093h.902c.466 0 .912-.186 1.242-.519A1.78 1.78 0 0023 17.896V5.772a1.786 1.786 0 00-.514-1.253A1.755 1.755 0 0021.243 4zm-18.487.746h18.487c.27 0 .529.109.72.301.19.192.297.453.297.725v.84H1.74v-.84c0-.272.108-.532.298-.725.19-.192.45-.3.719-.3zM21.243 18.92H2.756c-.27 0-.528-.109-.719-.301a1.032 1.032 0 01-.298-.725V7.357H22.26v10.539c0 .272-.107.533-.298.725-.19.192-.449.3-.719.3v-.002z" fill="currentColor"/><path d="M9.187 12.742H4.532a.43.43 0 00-.305.127.437.437 0 00.305.743h4.655a.43.43 0 00.305-.127.437.437 0 00-.305-.743zM9.187 14.592H4.532a.43.43 0 00-.305.128.437.437 0 00.305.743h4.655a.43.43 0 00.305-.128.437.437 0 00-.305-.743zM9.187 16.442H4.532a.437.437 0 000 .87h4.655a.43.43 0 00.305-.127.437.437 0 00-.305-.743z" fill="currentColor"/><path d="M19.834 14.384l-.677.292-.47-.29.874-.375a.12.12 0 00.04-.027.13.13 0 00.036-.091.135.135 0 00-.035-.091.12.12 0 00-.085-.039.114.114 0 00-.046.01l-1.05.453-.566-.347a1.033 1.033 0 000-.751l.565-.347 1.05.453a.112.112 0 00.122-.02.135.135 0 00.029-.161.124.124 0 00-.062-.058l-.875-.376.47-.289.677.292c.03.013.063.013.093 0a.125.125 0 00.065-.07.136.136 0 000-.1.126.126 0 00-.067-.069l-.502-.216.39-.239a.128.128 0 00.056-.078.136.136 0 00-.012-.098.126.126 0 00-.073-.06.115.115 0 00-.092.013l-.39.239.075-.57a.136.136 0 00-.023-.095.125.125 0 00-.08-.05.115.115 0 00-.09.025.133.133 0 00-.047.085l-.1.768-.471.29.13-.995a.137.137 0 00-.024-.095.124.124 0 00-.08-.05.117.117 0 00-.09.025.127.127 0 00-.047.085l-.156 1.193-.565.347a.913.913 0 00-.61-.375v-.695l.893-.74a.135.135 0 00.021-.18.116.116 0 00-.17-.023l-.745.617v-.578l.574-.477a.134.134 0 00-.015-.214.117.117 0 00-.091-.012.12.12 0 00-.042.023l-.427.353v-.477a.133.133 0 00-.036-.091.118.118 0 00-.086-.038.118.118 0 00-.085.038.133.133 0 00-.036.09v.478l-.427-.353a.114.114 0 00-.134-.01.13.13 0 00-.06.128.132.132 0 00.045.085l.574.477v.578l-.738-.62a.116.116 0 00-.17.022.135.135 0 00.02.18l.895.74v.695a.913.913 0 00-.61.375l-.566-.347-.156-1.193a.13.13 0 00-.047-.085.116.116 0 00-.17.025.135.135 0 00-.024.095l.13.995-.47-.29-.102-.768a.13.13 0 00-.047-.085.116.116 0 00-.09-.025.12.12 0 00-.08.05.135.135 0 00-.023.095l.075.57-.39-.239a.115.115 0 00-.091-.013.122.122 0 00-.074.06.136.136 0 00-.012.098.128.128 0 00.057.078l.389.24-.502.216a.127.127 0 00-.066.07.138.138 0 000 .097.13.13 0 00.064.07.116.116 0 00.093.001l.677-.292.47.29-.874.375a.124.124 0 00-.062.058.135.135 0 00.03.16c.02.02.048.03.076.03.015 0 .03-.003.044-.009l1.05-.453.566.347a1.033 1.033 0 000 .751l-.566.347-1.05-.453a.116.116 0 00-.131.029.134.134 0 00.04.21l.875.375-.471.29-.677-.293a.114.114 0 00-.092 0 .123.123 0 00-.065.071.135.135 0 00.027.14.12.12 0 00.04.028l.501.216-.389.239a.126.126 0 00-.056.078.138.138 0 00.012.098.126.126 0 00.073.06.114.114 0 00.092-.013l.39-.24-.075.57a.135.135 0 00.023.096.123.123 0 00.08.05h.017c.029 0 .057-.011.079-.032a.13.13 0 00.04-.079l.101-.768.471-.29-.13.995a.135.135 0 00.024.095.115.115 0 00.08.05h.016c.03 0 .058-.011.08-.032a.13.13 0 00.04-.08l.156-1.192.566-.348a.913.913 0 00.61.376v.694l-.894.74a.135.135 0 00-.021.18.117.117 0 00.17.022l.745-.615v.578l-.574.477a.127.127 0 00-.046.086.136.136 0 00.025.095c.01.013.022.024.035.033a.117.117 0 00.093.012.121.121 0 00.042-.023l.427-.353v.477c0 .034.012.067.035.091A.117.117 0 0017 17a.118.118 0 00.086-.038.133.133 0 00.035-.09v-.478l.427.353a.116.116 0 00.17-.022.135.135 0 00-.021-.181l-.574-.477v-.578l.745.617a.119.119 0 00.09.026.123.123 0 00.08-.049.134.134 0 00-.021-.18l-.894-.74v-.695a.913.913 0 00.61-.376l.566.348.156 1.193c.004.03.018.059.04.08.022.02.05.031.08.031h.016a.115.115 0 00.045-.016.132.132 0 00.059-.13l-.13-.994.47.29.102.768c.004.03.018.059.04.08.022.02.05.031.08.031h.016a.123.123 0 00.08-.05.132.132 0 00.023-.095l-.074-.57.389.239c.028.017.06.021.092.013a.122.122 0 00.073-.06.135.135 0 00.012-.098.128.128 0 00-.056-.078l-.39-.24.502-.215a.125.125 0 00.066-.07.136.136 0 00.001-.098.125.125 0 00-.065-.07.114.114 0 00-.092 0v.003zm-2.832-.159a.653.653 0 01-.379-.122.717.717 0 01-.25-.325.766.766 0 01-.04-.418.738.738 0 01.187-.37.67.67 0 01.349-.199.644.644 0 01.393.042c.125.054.23.147.306.266a.757.757 0 01-.086.913.662.662 0 01-.48.211v.002z" fill="currentColor" stroke="currentColor" stroke-width=".2"/></svg>