<svg width="24" height="24" viewBox="0 0 24 24" fill="none" xmlns="http://www.w3.org/2000/svg"><path d="M17.416 1H6.583c-.42 0-.822.182-1.119.504A1.8 1.8 0 005 2.72v18.107c0 .456.167.893.464 1.216.297.322.7.504 1.12.504h.106v.09c0 .097.035.189.097.257a.32.32 0 00.236.106.32.32 0 00.236-.106.379.379 0 00.098-.256v-.091h9.287v.09c0 .097.035.189.097.257a.32.32 0 00.236.106.32.32 0 00.236-.106.379.379 0 00.097-.256v-.091h.107c.42 0 .822-.182 1.119-.504A1.8 1.8 0 0019 20.827V2.72a1.8 1.8 0 00-.465-1.216A1.523 1.523 0 0017.415 1zM5.667 20.827V2.72c0-.264.097-.517.269-.703a.882.882 0 01.647-.292h2.911v20.097h-2.91a.882.882 0 01-.648-.292 1.042 1.042 0 01-.269-.703zm12.666 0c0 .264-.097.517-.269.703a.882.882 0 01-.647.292h-7.25V1.725h7.249c.242 0 .475.105.647.292.172.186.268.44.269.703l.001 18.107z" fill="currentColor" stroke="currentColor" stroke-width=".2"/><path d="M8.416 15.493a.32.32 0 00.235-.106.378.378 0 00.098-.256v-6.72a.379.379 0 00-.098-.257.32.32 0 00-.236-.106.32.32 0 00-.236.106.379.379 0 00-.097.256v6.717a.39.39 0 00.096.26c.031.033.068.06.11.078a.31.31 0 00.128.028zM11.248 8.053a.32.32 0 00-.235.105.378.378 0 00-.098.256v6.717c0 .096.036.189.098.256a.32.32 0 00.236.107.32.32 0 00.236-.107.379.379 0 00.097-.256v-6.72a.379.379 0 00-.1-.254.32.32 0 00-.234-.104zM16.933 5.95h-4.05a.32.32 0 00-.235.106.378.378 0 00-.098.256v3.635c0 .096.036.188.098.256a.32.32 0 00.235.106h4.05a.32.32 0 00.236-.106.378.378 0 00.097-.256V6.312a.378.378 0 00-.097-.256.32.32 0 00-.236-.106zM16.6 9.586h-3.376V6.675H16.6v2.91zM16.113 11.395H13.71a.321.321 0 00-.236.106.38.38 0 00-.098.257.38.38 0 00.098.256.321.321 0 00.236.106h2.404a.32.32 0 00.236-.106.38.38 0 00.098-.256.38.38 0 00-.098-.257.32.32 0 00-.236-.106z" fill="currentColor" stroke="currentColor" stroke-width=".2"/></svg>