<svg width="24" height="24" viewBox="0 0 24 24" fill="none" xmlns="http://www.w3.org/2000/svg"><path d="M17.203 1H6.798a1.843 1.843 0 00-1.27.505C5.19 1.827 5 2.265 5 2.721v18.107c.001.456.191.892.528 1.215.337.322.793.504 1.27.504h.12v.09c0 .097.04.189.11.257a.387.387 0 00.536 0c.07-.068.11-.16.11-.256v-.09h8.652v.09c0 .096.04.188.11.256a.387.387 0 00.535 0 .354.354 0 00.111-.256v-.09h.12c.477-.001.933-.183 1.27-.505.337-.323.527-.76.528-1.215V2.72a1.688 1.688 0 00-.527-1.216A1.843 1.843 0 0017.203 1zm-10.405.724h10.405c.276 0 .54.106.735.292.195.187.305.44.305.704v11.163H5.757V2.72c0-.264.11-.517.305-.704.195-.187.46-.292.736-.292zm10.405 20.099H6.798c-.276 0-.54-.106-.736-.292a.976.976 0 01-.305-.704v-6.22h12.487v6.22c0 .264-.11.517-.305.704-.195.187-.46.292-.736.292z" fill="currentColor"/><path d="M9.471 13.11h5.064c.15 0 .265-.227.265-.503 0-.277-.118-.503-.265-.503H9.47c-.15 0-.265.225-.265.503 0 .277.115.503.265.503zM14.532 15.408h-5.06c-.15 0-.266.226-.266.502 0 .277.118.503.265.503h5.064c.15 0 .265-.226.265-.503 0-.276-.121-.502-.268-.502z" fill="currentColor"/></svg>