<svg width="24" height="24" viewBox="0 0 24 24" fill="none" xmlns="http://www.w3.org/2000/svg"><g clip-path="url(#clip0)"><path d="M19.71 22.886h-5.137a.653.653 0 01-.654-.653v-7.33h-3.846v7.33a.654.654 0 01-.653.653H4.284a.654.654 0 01-.653-.653v-11.11H.655A.654.654 0 01.257 9.95l11.344-8.7a.653.653 0 01.798 0l11.344 8.7a.653.653 0 01-.398 1.173H20.37v11.11a.653.653 0 01-.652.654h-.009zm-4.484-1.306h3.829V10.469a.653.653 0 01.653-.653h1.7l-9.414-7.223-9.417 7.221h1.7a.653.653 0 01.654.653v11.11H8.76v-7.329a.653.653 0 01.653-.653h5.157a.653.653 0 01.653.653l.003 7.332z" fill="currentColor"/></g><defs><clipPath id="clip0"><path fill="currentColor" d="M0 0h24v24H0z"/></clipPath></defs></svg>