<svg width="24" height="24" viewBox="0 0 24 24" fill="none" xmlns="http://www.w3.org/2000/svg"><g clip-path="url(#clip0)" fill="currentColor"><path d="M21.164 13.44l-.002-.001a.595.595 0 00-.808.203l-5.66 9.434a.596.596 0 001.017.597l5.656-9.426a.592.592 0 00-.203-.807zM14.768 19.151c.437 0 .864-.137 1.218-.393.23-.165.433-.364.6-.592a3.755 3.755 0 00.04-4.234 2.517 2.517 0 00-.766-.714 2.03 2.03 0 00-2.043-.031 2.5 2.5 0 00-.789.69 3.788 3.788 0 00-.066 4.268c.203.29.464.532.766.714.308.185.659.285 1.018.291l.022.001zm-1.256-3.198c.04-1.011.627-1.849 1.304-1.849h.007a.98.98 0 01.685.325c.392.451.597 1.034.575 1.63.003.504-.15.995-.44 1.406a1.5 1.5 0 01-.331.33.92.92 0 01-.543.178.993.993 0 01-.698-.336 2.29 2.29 0 01-.556-1.617l.002-.067h-.005zM23.374 18.691l-.045-.067-.004.004a2.504 2.504 0 00-.719-.65 2.034 2.034 0 00-2.044-.032 2.507 2.507 0 00-.788.69 3.786 3.786 0 00-.065 4.269c.202.289.463.532.765.714a2.03 2.03 0 002.044.031c.309-.172.578-.408.79-.692a3.784 3.784 0 00.066-4.267zm-1.856 4.04h-.01c-.692-.008-1.268-.902-1.258-1.954.01-1.04.608-1.914 1.306-1.914h.007a.985.985 0 01.69.328c.39.45.593 1.032.57 1.627-.017 1.04-.613 1.914-1.305 1.914zM4.841 15.991a4.037 4.037 0 01-.39-1.744.62.62 0 10-1.24 0 5.263 5.263 0 00.509 2.274 5.346 5.346 0 004.811 3.044h.005a.619.619 0 10-.003-1.237 4.128 4.128 0 01-3.692-2.337z"/><path d="M13.099 20.7l.033-.028h-.18a.613.613 0 00-.308.082 7.505 7.505 0 01-3.8 1.034h-.007a7.782 7.782 0 01-5.515-2.321 7.216 7.216 0 01-2.076-5.237c.065-2.418 1.456-5.43 4.023-8.712a39.739 39.739 0 013.555-3.95 44.14 44.14 0 013.62 4.088 23.44 23.44 0 013.395 5.75l.013.034a.622.622 0 001.15-.475 15.969 15.969 0 00-.697-1.596 27.66 27.66 0 00-2.885-4.471A43.52 43.52 0 009.251.253a.617.617 0 00-.84 0A39.184 39.184 0 004.3 4.746 26.753 26.753 0 001.422 9.2a12.21 12.21 0 00-1.418 5 8.226 8.226 0 00.61 3.368 8.537 8.537 0 001.816 2.767 8.995 8.995 0 006.396 2.695h.011c1.551 0 3.074-.41 4.416-1.187a.54.54 0 00.15-.125.623.623 0 00-.304-1.018z"/></g><defs><clipPath id="clip0"><path fill="currentColor" d="M0 0h24v24H0z"/></clipPath></defs></svg>