<svg width="24" height="24" viewBox="0 0 24 24" fill="none" xmlns="http://www.w3.org/2000/svg"><path d="M19.33 23.791H4.675a.699.699 0 01-.478-.185.614.614 0 01-.198-.448V10.265c0-.168.071-.329.198-.447a.699.699 0 01.478-.186h14.649c.179 0 .35.067.477.186.127.118.198.28.198.447V23.16c0 .167-.07.327-.197.446a.698.698 0 01-.474.186zM5.355 22.524h13.298V10.9H5.356v11.626z" fill="currentColor"/><path d="M18.548 10.352a.699.699 0 01-.477-.186.614.614 0 01-.198-.447c0-4.106-2.633-7.453-5.868-7.453-3.236 0-5.868 3.343-5.868 7.453 0 .168-.072.329-.198.447a.699.699 0 01-.478.186.699.699 0 01-.478-.186.614.614 0 01-.197-.447C4.786 4.91 8.024 1 12.002 1c3.98 0 7.217 3.911 7.217 8.719 0 .167-.07.327-.196.446a.699.699 0 01-.475.187zM12.055 17.673a.7.7 0 01-.478-.186.614.614 0 01-.198-.448v-2.95c0-.168.071-.33.198-.448a.7.7 0 01.478-.186c.179 0 .35.067.477.186s.198.28.198.448v2.95c0 .168-.071.33-.198.448a.699.699 0 01-.477.186z" fill="currentColor"/></svg>