<svg width="24" height="24" viewBox="0 0 24 24" fill="none" xmlns="http://www.w3.org/2000/svg"><g clip-path="url(#clip0)" fill="currentColor"><path d="M7.231 15.63a.799.799 0 001.364.566l3.631-3.63a.8.8 0 000-1.13l-3.63-3.632a.798.798 0 00-1.13 1.128l2.268 2.267h-8.46a.8.8 0 10.004 1.601h8.456l-2.267 2.266a.795.795 0 00-.236.564z"/><path d="M22.615 0H8.158a.893.893 0 00-.909.871v3.464a.851.851 0 00.268.615.927.927 0 001.28-.005.846.846 0 00.263-.615V1.743H21.7v20.515H9.06v-2.594a.894.894 0 00-.905-.868.864.864 0 00-.645.255.848.848 0 00-.268.615v3.463a.892.892 0 00.91.871h14.457a.892.892 0 00.908-.872V.87a.892.892 0 00-.902-.87z"/></g><defs><clipPath id="clip0"><path fill="currentColor" d="M0 0h24v24H0z"/></clipPath></defs></svg>