<svg width="24" height="24" viewBox="0 0 24 24" fill="none" xmlns="http://www.w3.org/2000/svg"><path d="M20.833 8.035c-.441-2.245-1.793-4.232-3.758-5.523a9.31 9.31 0 00-6.727-1.368C8.23 1.547 6.33 2.657 4.986 4.276A8.519 8.519 0 003.004 9.99a8.088 8.088 0 001.653 4.604c2.218 3.008 4.579 5.015 6.807 8.02a.74.74 0 00.278.283.782.782 0 00.783 0 .74.74 0 00.278-.283c2.225-3.008 4.319-5.008 6.529-8.023a8.217 8.217 0 001.465-3.127 8.042 8.042 0 00.036-3.428zM12 14.696c-1.062 0-2.1-.302-2.982-.869a5.201 5.201 0 01-1.977-2.311 4.954 4.954 0 01-.304-2.976A5.088 5.088 0 018.21 5.904a5.443 5.443 0 012.75-1.407 5.58 5.58 0 013.102.295 5.326 5.326 0 012.408 1.898 5 5 0 01.902 2.862c0 .676-.139 1.346-.409 1.97a5.138 5.138 0 01-1.164 1.671 5.388 5.388 0 01-1.742 1.116A5.565 5.565 0 0112 14.7v-.004z" stroke="currentColor" stroke-width="1.5"/></svg>