<svg width="24" height="24" viewBox="0 0 24 24" fill="none" xmlns="http://www.w3.org/2000/svg"><path d="M5.293 22.97a8.64 8.64 0 01-2.23-.289.644.644 0 01-.217-1.14 9.205 9.205 0 002.06-2.105 9.616 9.616 0 01-4.742-8.038c0-5.55 5.347-10.065 11.918-10.065C18.653 1.333 24 5.85 24 11.398c0 5.549-5.347 10.064-11.918 10.064-.513 0-1.026-.027-1.537-.082a9.622 9.622 0 01-5.252 1.59zm-.6-1.311a8.306 8.306 0 005.327-1.482.648.648 0 01.445-.107c.537.067 1.077.101 1.618.101 5.861 0 10.63-3.936 10.63-8.775 0-4.84-4.769-8.778-10.63-8.778-5.86 0-10.63 3.938-10.63 8.777a8.482 8.482 0 004.675 7.268.644.644 0 01.236.896 10.58 10.58 0 01-1.671 2.1z" fill="currentColor"/></svg>