<svg width="24" height="24" viewBox="0 0 24 24" fill="none" xmlns="http://www.w3.org/2000/svg"><path d="M11.92 15.84a4.3 4.3 0 002.932-1.14 3.772 3.772 0 001.218-2.746V4.886c0-1.03-.437-2.019-1.215-2.748A4.295 4.295 0 0011.92 1c-1.1 0-2.155.41-2.933 1.138a3.766 3.766 0 00-1.215 2.748v7.068A3.77 3.77 0 008.989 14.7a4.298 4.298 0 002.931 1.14zm0-.707a3.517 3.517 0 01-2.254-.813 3.11 3.11 0 01-1.101-2.014h6.712a3.11 3.11 0 01-1.103 2.013c-.62.521-1.422.81-2.254.813v.001zm0-13.427c.9 0 1.763.336 2.4.932.637.597.995 1.405.996 2.248v6.715H8.527V4.886c.001-.843.359-1.651.995-2.248a3.518 3.518 0 012.398-.933v0z" stroke="currentColor" stroke-linecap="round" stroke-linejoin="round"/><path d="M12.298 19.353c2.03-.091 3.946-.91 5.35-2.289 1.403-1.377 2.188-3.208 2.191-5.113h-.755a6.342 6.342 0 01-.518 2.596 6.694 6.694 0 01-1.547 2.207 7.209 7.209 0 01-2.336 1.478 7.586 7.586 0 01-2.764.52 7.586 7.586 0 01-2.763-.52 7.209 7.209 0 01-2.336-1.478 6.693 6.693 0 01-1.547-2.207 6.341 6.341 0 01-.518-2.596H4c.004 1.905.789 3.736 2.193 5.114 1.404 1.378 3.32 2.197 5.35 2.288v2.845H4.377v.707h15.088v-.707h-7.166l-.001-2.845z" stroke="currentColor" stroke-linecap="round" stroke-linejoin="round"/></svg>