<svg width="24" height="24" viewBox="0 0 24 24" fill="none" xmlns="http://www.w3.org/2000/svg"><g clip-path="url(#clip0)"><path d="M21.896 21.81l-.44 1.354-20.062-6.52.44-1.352 3.704-1.423 2.183-6.717a7.465 7.465 0 018.113-5.086l.175-.54a.88.88 0 011.108-.564l.836.272a.88.88 0 01.568 1.11l-.174.535a7.468 7.468 0 013.591 8.893l-2.183 6.718 2.141 3.32zm-11.543 1.395a2.953 2.953 0 003.72-1.894l-5.617-1.825a2.95 2.95 0 001.897 3.719v0z" stroke="currentColor" stroke-width="1.2" stroke-miterlimit="10" stroke-linecap="round" stroke-linejoin="round"/></g><defs><clipPath id="clip0"><path fill="currentColor" d="M0 0h24v24H0z"/></clipPath></defs></svg>