<svg width="24" height="24" viewBox="0 0 24 24" fill="none" xmlns="http://www.w3.org/2000/svg"><g clip-path="url(#clip0)" fill="currentColor"><path d="M12 24a.644.644 0 01-.643-.644V9.966L.68 5.683a.644.644 0 01.479-1.195l11.08 4.444a.644.644 0 01.404.597v13.826a.645.645 0 01-.644.643z"/><path d="M12 24a.644.644 0 01-.643-.644V9.53a.644.644 0 01.403-.598L22.84 4.49a.644.644 0 11.48 1.194L12.643 9.966v13.39a.644.644 0 01-.643.643zM6.46 7.935a.644.644 0 01-.239-1.241l11.08-4.444a.643.643 0 11.479 1.195L6.7 7.889a.644.644 0 01-.24.046z"/><path d="M6.731 11.548a.644.644 0 01-.643-.644v-3.32a.643.643 0 111.287 0v3.32a.644.644 0 01-.644.644z"/><path d="M11.999 24a.645.645 0 01-.24-.046L.68 19.51a.643.643 0 01-.404-.597V5.086A.644.644 0 01.68 4.49L11.76.046a.647.647 0 01.478 0l11.08 4.443a.644.644 0 01.404.597V18.37a.642.642 0 01-.38.587l-11.08 4.987A.637.637 0 0112 24zM1.563 18.479l10.42 4.178 10.452-4.703V5.522L12 1.337 1.563 5.52v12.957z"/></g><defs><clipPath id="clip0"><path fill="currentColor" d="M0 0h24v24H0z"/></clipPath></defs></svg>