<svg width="24" height="24" viewBox="0 0 24 24" fill="none" xmlns="http://www.w3.org/2000/svg"><path d="M17.17 1H6.574c-.485 0-.95.182-1.293.504a1.67 1.67 0 00-.537 1.215v18.094c0 .456.194.893.537 1.215.343.322.808.504 1.293.504h.123v.09a.353.353 0 00.119.246.4.4 0 00.266.1.4.4 0 00.267-.1.353.353 0 00.119-.246v-.09h8.808v.09a.342.342 0 00.107.266.388.388 0 00.279.112.407.407 0 00.278-.112.36.36 0 00.107-.266v-.09h.123c.485 0 .95-.182 1.293-.504A1.67 1.67 0 0019 20.813V2.72a1.67 1.67 0 00-.537-1.215A1.894 1.894 0 0017.17 1zm-10.596.724H17.17c.28 0 .55.105.749.291.199.187.31.44.31.704V18.25H5.516V2.72c0-.264.112-.517.31-.703.2-.187.469-.292.75-.292zM17.17 21.808H6.574c-.28 0-.55-.105-.748-.292a.967.967 0 01-.31-.703v-1.84h12.713v1.84a.967.967 0 01-.31.703 1.096 1.096 0 01-.75.292z" fill="currentColor"/><path d="M14.14 12.947l-4.085-2.763a.395.395 0 00-.291-.072.4.4 0 00-.258.147.352.352 0 00-.067.276.373.373 0 00.165.237l4.085 2.762a.406.406 0 00.528-.089.345.345 0 00-.077-.498zM14.14 9.839l-4.085-2.763a.396.396 0 00-.291-.072.402.402 0 00-.258.146.352.352 0 00-.067.276.35.35 0 00.057.134c.028.041.065.076.108.103l4.085 2.763a.397.397 0 00.292.072.402.402 0 00.257-.147.351.351 0 00.067-.276.35.35 0 00-.057-.134.374.374 0 00-.108-.102z" fill="currentColor"/><path d="M7.057 17.163h9.631c.102 0 .2-.038.273-.106a.351.351 0 00.113-.256v-4.887a.344.344 0 00-.039-.157.367.367 0 00-.106-.125l-.307-.233V8.574l.307-.233a.367.367 0 00.107-.126.344.344 0 00.038-.156V3.172a.351.351 0 00-.113-.256.399.399 0 00-.273-.106H7.057c-.102 0-.2.038-.272.106a.351.351 0 00-.113.256v13.632a.35.35 0 00.114.254c.072.067.17.105.27.105zM7.442 3.53h8.861v4.353l-.307.233a.366.366 0 00-.107.125.344.344 0 00-.038.157v3.172c0 .054.013.107.038.156a.368.368 0 00.107.126l.307.233v4.352h-8.86V3.53z" fill="currentColor"/></svg>