<svg width="24" height="24" viewBox="0 0 24 24" fill="none" xmlns="http://www.w3.org/2000/svg"><g clip-path="url(#clip0)"><path d="M23.103 5.9l-.708-.898a3.75 3.75 0 00-.39-.926 3.611 3.611 0 00-3.13-1.8c-1.792 0-4.384 1.58-5.98 1.91-2.517.511-4.77.209-7.014.635a6.95 6.95 0 00-5.654 5.313 7.184 7.184 0 00.871 5.609l1.215 2.384a6.786 6.786 0 005.994 3.597c4.72 0 9.313-4.02 10.222-4.896 2.165-2.083 7.604-7.416 4.574-10.927zM6.067 5.8c2.326-.455 4.683-.08 7.049-.643 1.945-.476 4.304-1.885 5.757-1.884a2.664 2.664 0 012.335 3.904 24.913 24.913 0 01-4.773 6.049 19.607 19.607 0 01-7.657 4.397 6.12 6.12 0 01-5.725-1.106A6.198 6.198 0 016.067 5.799zm11.789 10.293c-1.77 1.432-5.7 4.631-9.548 4.631a5.648 5.648 0 01-4.943-2.761 7.634 7.634 0 005.65.628 20.258 20.258 0 008.097-4.631c1.96-1.811 4.688-5.227 5.328-7.279 2.024 2.534-2.478 7.706-4.584 9.412zm-2.91-7.366l-6.31 2.728-.348 2.85a.515.515 0 01-.525.436.497.497 0 01-.468-.524l.003-.033.337-2.751-2.252-.897a.497.497 0 11.364-.926l2.418.961 6.382-2.759a.498.498 0 11.395.915h.004z" fill="currentColor"/></g><defs><clipPath id="clip0"><path fill="currentColor" d="M0 0h24v24H0z"/></clipPath></defs></svg>