<svg width="24" height="24" viewBox="0 0 24 24" fill="none" xmlns="http://www.w3.org/2000/svg"><g clip-path="url(#clip0)" fill="currentColor"><path d="M21.853 11.191a.287.287 0 00-.567.094 10.425 10.425 0 11-6.283-7.917.287.287 0 00.22-.53 11.006 11.006 0 10-.028 20.325 11 11 0 006.658-11.972z"/><path d="M14.155 20.482a.277.277 0 00.277-.278v-.026h.043a1.192 1.192 0 001.189-1.189V6.837a1.192 1.192 0 00-1.189-1.189H6.577a1.192 1.192 0 00-1.19 1.19v12.151a1.192 1.192 0 001.19 1.189h.043v.026a.277.277 0 10.555 0v-.026h6.703v.026a.278.278 0 00.277.278zm.32-.86H9.224V6.205h5.251a.635.635 0 01.634.634v12.151a.636.636 0 01-.634.634zM5.943 6.838a.636.636 0 01.634-.633h2.092v13.419H6.577a.636.636 0 01-.634-.634V6.837z"/><path d="M7.913 15.444a.277.277 0 00.278-.277V10.66a.277.277 0 10-.555 0v4.508a.278.278 0 00.277.276zM9.98 10.382h-.001a.278.278 0 00-.277.277v4.509a.278.278 0 00.277.269h.009a.278.278 0 00.269-.27V10.66a.278.278 0 00-.278-.278zM14.123 8.97h-2.948a.278.278 0 00-.278.277v2.44a.278.278 0 00.278.278h2.948a.278.278 0 00.278-.277v-2.44a.278.278 0 00-.278-.278zm-.278.556v1.885h-2.393V9.526h2.393zM13.526 12.625h-1.754a.278.278 0 000 .555h1.754a.278.278 0 100-.555zM20.795 3.517l-3.289 3.668-1.835-2.28c-.397-.623-1.9.507-1.641 1.145l2.39 3.335c.635.921 1.527.726 2.051-.046 0 0 5.747-8.055 5.523-8.227-.555-.425-1.266.356-3.2 2.405z"/></g><defs><clipPath id="clip0"><path fill="currentColor" d="M0 0h24v24H0z"/></clipPath></defs></svg>