<svg width="24" height="24" viewBox="0 0 24 24" fill="none" xmlns="http://www.w3.org/2000/svg"><g clip-path="url(#clip0)" stroke="currentColor"><path d="M14.543 2.687A2.592 2.592 0 0012.114.848a2.593 2.593 0 00-2.423 1.84 4.222 4.222 0 00-1.995 3.639l.003 13.504a3.83 3.83 0 001.775 3.277l2.562.053 2.741-.059a3.831 3.831 0 001.764-3.273l-.004-13.504a4.222 4.222 0 00-1.994-3.638z" stroke-width="1.001"/><path d="M12.784 3.691a5.54 5.54 0 00-1.342 0 .15.15 0 01-.145-.221.898.898 0 01.816-.438.898.898 0 01.816.436.151.151 0 01-.145.223z" fill="currentColor" stroke-width=".6"/><path d="M14.657 12.703c.02.007.04.011.06.011a.16.16 0 00.15-.096.155.155 0 00-.09-.204l-.706-.28.63-.355a.155.155 0 00.08-.156.156.156 0 00-.02-.058.162.162 0 00-.215-.055l-.63.355.102-.74a.157.157 0 00-.136-.176.16.16 0 00-.181.133l-.14.982-.775.435a.896.896 0 00-.521-.295v-.872l.798-.607a.153.153 0 00.061-.105.154.154 0 00-.034-.116.163.163 0 00-.221-.028l-.6.46v-.71a.16.16 0 10-.32 0v.71l-.601-.457a.163.163 0 00-.251.083.153.153 0 00.057.167l.797.607v.87a.899.899 0 00-.52.294l-.776-.435-.137-.982a.16.16 0 00-.317.042l.105.738-.635-.353a.16.16 0 00-.18.01.162.162 0 00-.062.105.154.154 0 00.08.156l.63.356-.7.277a.155.155 0 00-.03.275.161.161 0 00.151.014l.938-.371.775.434a.853.853 0 000 .587l-.775.436-.938-.373a.16.16 0 00-.22.149.155.155 0 00.1.143l.707.28-.63.355a.153.153 0 00-.08.155c.003.021.01.04.02.059a.163.163 0 00.214.055l.634-.355-.105.737a.157.157 0 00.136.172h.022a.159.159 0 00.159-.135l.14-.973.775-.435a.9.9 0 00.52.293v.87l-.797.607a.154.154 0 00-.032.216.164.164 0 00.221.028l.602-.458v.712a.16.16 0 00.32 0v-.707l.602.457a.163.163 0 00.227-.032.154.154 0 00-.028-.221l-.797-.608v-.863a.897.897 0 00.52-.293l.776.435.138.978a.158.158 0 00.159.136h.019a.156.156 0 00.132-.115.157.157 0 00.004-.062l-.105-.739.633.355a.163.163 0 00.242-.116.153.153 0 00-.079-.155l-.63-.356.707-.28a.156.156 0 00-.002-.292.16.16 0 00-.127.003l-.937.372-.776-.436a.85.85 0 000-.587l.776-.434.937.372zm-2.548.912a.56.56 0 11.573-.554.567.567 0 01-.573.554z" fill="currentColor" stroke-width=".3"/></g><defs><clipPath id="clip0"><path fill="currentColor" d="M0 0h24v24H0z"/></clipPath></defs></svg>