<svg width="24" height="24" viewBox="0 0 24 24" fill="none" xmlns="http://www.w3.org/2000/svg"><g clip-path="url(#clip0)" fill="currentColor"><path d="M13.243 24h-2.38a1.238 1.238 0 01-1.158-1.292l-.264-2a9.007 9.007 0 01-1.719-.7L6.13 21.266a1.276 1.276 0 01-1.738.1l-1.682-1.68a1.074 1.074 0 01-.308-.768c.007-.36.15-.705.4-.965l1.225-1.6a9.034 9.034 0 01-.72-1.714l-2.015-.236a1.434 1.434 0 01-.974-.4 1.073 1.073 0 01-.323-.762v-2.377a1.073 1.073 0 01.324-.76c.26-.251.607-.394.969-.4l2-.264a9.008 9.008 0 01.7-1.719L2.73 6.129a1.43 1.43 0 01-.408-.97 1.073 1.073 0 01.31-.767L4.314 2.71a1.278 1.278 0 011.733.1l1.6 1.225a9.017 9.017 0 011.713-.72l.236-2.014a1.239 1.239 0 011.158-1.3h2.38a1.238 1.238 0 011.158 1.293l.264 2a9.044 9.044 0 011.72.7l1.592-1.257a1.278 1.278 0 011.737-.1l1.682 1.682a1.1 1.1 0 01.294.958c-.05.292-.185.562-.39.775l-1.225 1.6c.298.544.539 1.118.719 1.712l2.014.237a1.24 1.24 0 011.3 1.158v2.379a1.239 1.239 0 01-1.293 1.159l-2 .264a9.031 9.031 0 01-.7 1.72l1.257 1.592c.207.214.344.485.393.779a1.1 1.1 0 01-.294.957l-1.683 1.683a1.074 1.074 0 01-.768.309 1.43 1.43 0 01-.965-.4l-1.6-1.226a8.987 8.987 0 01-1.713.72l-.236 2.015A1.24 1.24 0 0113.243 24zm-2.223-1.314h2.06v-.024a.66.66 0 010-.077l.292-2.488a.658.658 0 01.5-.563c.77-.19 1.504-.5 2.179-.915a.657.657 0 01.745.039l1.979 1.516a.628.628 0 01.065.057l.018.016 1.462-1.461-.016-.017a.64.64 0 01-.051-.058L18.7 16.745a.659.659 0 01-.047-.748 7.7 7.7 0 00.895-2.189.66.66 0 01.554-.5l2.471-.327c.037-.005.077 0 .111-.007v-2.06c-.031 0-.067 0-.1-.006l-2.488-.292a.66.66 0 01-.562-.5 7.709 7.709 0 00-.915-2.18.659.659 0 01.038-.745l1.516-1.979a.678.678 0 01.058-.065l.016-.018-1.456-1.457-.018.017a.667.667 0 01-.057.051l-1.965 1.553a.659.659 0 01-.748.047 7.7 7.7 0 00-2.189-.9.66.66 0 01-.5-.554l-.327-2.47a.635.635 0 01-.006-.086v-.025H10.92v.025a.761.761 0 010 .077l-.292 2.488a.66.66 0 01-.5.562c-.77.191-1.504.5-2.179.916a.658.658 0 01-.746-.039L5.224 3.817a.623.623 0 01-.065-.057l-.018-.016-1.456 1.457.016.018a.617.617 0 01.052.057l1.553 1.966a.659.659 0 01.047.748 7.73 7.73 0 00-.9 2.189.658.658 0 01-.554.5l-2.471.327a.46.46 0 00-.087.006H1.32v2.06c.03 0 .067 0 .1.005l2.489.292a.659.659 0 01.562.5 7.7 7.7 0 00.915 2.18.66.66 0 01-.038.746L3.83 18.786a.818.818 0 01-.058.066l-.016.017 1.457 1.456.016-.015a.651.651 0 01.058-.052l1.966-1.553a.658.658 0 01.749-.047c.679.409 1.417.71 2.188.895a.659.659 0 01.5.554l.327 2.471a.65.65 0 01.006.086c-.003.003-.003.011-.003.022z"/><path d="M11.999 16.611a4.611 4.611 0 11-.002-9.222 4.611 4.611 0 01.002 9.222zm0-7.9a3.293 3.293 0 102.328.964 3.3 3.3 0 00-2.328-.968v.004z"/></g><defs><clipPath id="clip0"><path fill="currentColor" d="M0 0h24v24H0z"/></clipPath></defs></svg>