<svg width="24" height="24" viewBox="0 0 24 24" fill="none" xmlns="http://www.w3.org/2000/svg"><path d="M12.002 24a.387.387 0 01-.154-.03 17.52 17.52 0 01-6.452-4.77C3.17 16.562 1.96 13.162 2.001 9.652v-4.79c0-.11.042-.215.117-.292a.39.39 0 01.28-.121 11.426 11.426 0 005.124-1.06A11.862 11.862 0 0011.705.139a.399.399 0 01.274-.137.383.383 0 01.287.104c.011.01.023.021.033.033a11.86 11.86 0 004.182 3.25c1.61.746 3.36 1.108 5.121 1.06a.39.39 0 01.28.12.422.422 0 01.117.292v4.796c.041 3.508-1.168 6.909-3.394 9.546a17.535 17.535 0 01-6.452 4.77.38.38 0 01-.15.028z" fill="currentColor"/></svg>