<svg width="24" height="24" viewBox="0 0 24 24" fill="none" xmlns="http://www.w3.org/2000/svg"><path d="M11.693 22.77a.375.375 0 01-.143-.029 16.278 16.278 0 01-6.006-4.271 12.722 12.722 0 01-3.16-8.548V5.638a.37.37 0 01.37-.37 10.994 10.994 0 008.663-3.856.37.37 0 01.553 0 10.992 10.992 0 008.66 3.856.37.37 0 01.37.369v4.295a12.727 12.727 0 01-3.16 8.548 16.295 16.295 0 01-6.006 4.27.364.364 0 01-.141.02v0z" stroke="currentColor" stroke-width="1.5"/><path d="M16.461 8.915L9.79 15.587l-3.032-3.03" stroke="currentColor" stroke-width="1.5" stroke-linecap="round" stroke-linejoin="round"/></svg>