<svg width="24" height="24" viewBox="0 0 24 24" fill="none" xmlns="http://www.w3.org/2000/svg"><g clip-path="url(#clip0)"><path d="M21.98 4.447A12.276 12.276 0 0112.31.138a.413.413 0 00-.617 0A12.277 12.277 0 012.02 4.45a.414.414 0 00-.413.413v4.79A14.206 14.206 0 005.136 19.2a18.184 18.184 0 006.706 4.77.42.42 0 00.16.032.409.409 0 00.16-.028 18.197 18.197 0 006.703-4.767 14.213 14.213 0 003.528-9.546v-4.8a.413.413 0 00-.412-.413zM11.816 6.302a.834.834 0 01.167 0l.003.004a.782.782 0 01.86.86l-.193 7.158a.652.652 0 01-1.304 0l-.226-7.162a.78.78 0 01.693-.86zm.222 11.688a1.05 1.05 0 11-.072-2.1H12a1.05 1.05 0 01.036 2.1z" fill="currentColor"/></g><defs><clipPath id="clip0"><path fill="currentColor" d="M0 0h24v24H0z"/></clipPath></defs></svg>