<svg width="24" height="24" viewBox="0 0 24 24" fill="none" xmlns="http://www.w3.org/2000/svg"><path d="M20.275 10.917a.483.483 0 00.477-.053.507.507 0 00.184-.239.536.536 0 00-.28-.689l-2.237-.947 1.997-1.205a.543.543 0 00.059-.879.491.491 0 00-.566-.038l-1.996 1.205.332-2.5a.526.526 0 00-.432-.598.512.512 0 00-.572.453l-.442 3.314-2.444 1.477a2.81 2.81 0 00-1.649-.996V6.276l2.529-2.056a.546.546 0 00.088-.738.492.492 0 00-.71-.092l-1.906 1.55V2.532a.507.507 0 00-1.013 0V4.94L9.788 3.39a.492.492 0 00-.71.092.547.547 0 00.087.738l2.529 2.056v2.946a2.81 2.81 0 00-1.649.996L7.601 8.74l-.44-3.314a.512.512 0 00-.572-.453.528.528 0 00-.433.598l.333 2.5-1.997-1.205a.492.492 0 00-.693.193.543.543 0 00.186.724l1.998 1.205-2.238.947a.537.537 0 00-.279.69.508.508 0 00.47.33c.066 0 .13-.013.19-.04l2.97-1.257 2.443 1.477a3.078 3.078 0 000 1.99l-2.443 1.476-2.97-1.258a.5.5 0 00-.66.293.538.538 0 00.28.689l2.237.947-1.998 1.205a.544.544 0 00-.186.725.504.504 0 00.44.263.492.492 0 00.253-.07l1.997-1.205-.333 2.498a.527.527 0 00.433.598.456.456 0 00.07 0 .514.514 0 00.5-.456l.441-3.314 2.444-1.477c.415.516.999.869 1.648.996v2.947l-2.528 2.056a.546.546 0 00-.088.739.49.49 0 00.711.09l1.905-1.549v2.408a.507.507 0 101.014 0v-2.408l1.905 1.55a.493.493 0 00.712-.091.547.547 0 00-.088-.739l-2.529-2.056v-2.947a2.808 2.808 0 001.65-.995l2.443 1.477.442 3.314a.515.515 0 00.502.457.432.432 0 00.07 0 .525.525 0 00.432-.598l-.332-2.497 1.996 1.203a.491.491 0 00.509-.001.503.503 0 00.183-.192.545.545 0 00-.185-.725l-1.997-1.205 2.238-.947a.537.537 0 00.279-.69.5.5 0 00-.66-.292l-2.97 1.259-2.443-1.477c.22-.645.22-1.345 0-1.99l2.443-1.477 2.97 1.257zM12.2 14.023a1.896 1.896 0 01-1.45-3.21 1.896 1.896 0 013.267 1.313 1.86 1.86 0 01-1.816 1.897zM19.572 19.083a.533.533 0 10.582.53.56.56 0 00-.582-.53zM22.418 12.85c.322 0 .582-.237.582-.53 0-.293-.26-.53-.582-.53-.321 0-.582.237-.582.53 0 .293.26.53.582.53zM2.582 8.801c.321 0 .582-.237.582-.53 0-.293-.26-.53-.582-.53-.322 0-.582.237-.582.53 0 .293.26.53.582.53zM8.096 21.46h-.529v-.482a.39.39 0 00-.776 0v.481h-.528a.354.354 0 00-.269.614.354.354 0 00.27.093h.527v.481a.39.39 0 00.776 0v-.481h.529a.354.354 0 100-.707zM5.344 3.87h-.527v-.482a.39.39 0 00-.776 0v.481h-.53a.354.354 0 100 .707h.53v.48a.39.39 0 00.776 0v-.48h.527a.356.356 0 100-.707zM20.616.833h-.527v-.48a.39.39 0 00-.777 0v.48h-.529a.354.354 0 100 .707h.53v.48a.39.39 0 00.776 0v-.48h.527a.356.356 0 100-.707z" fill="currentColor"/></svg>