<svg width="24" height="24" viewBox="0 0 24 24" fill="none" xmlns="http://www.w3.org/2000/svg"><g clip-path="url(#clip0)" fill="currentColor"><path d="M12.003 24.002A12.005 12.005 0 01.87 16.492 11.997 11.997 0 013.672 3.359a.964.964 0 011.34 1.386A10.07 10.07 0 0015.317 21.51 10.074 10.074 0 0022 10.793a10.07 10.07 0 00-9.042-8.82V5.73a.968.968 0 11-1.932 0V.967A.965.965 0 0111.993 0a12.005 12.005 0 0112.004 12 11.999 11.999 0 01-12.004 12l.01.002z"/><path d="M7.236 6.41l5.85 4.204a1.77 1.77 0 11-2.47 2.471L6.41 7.237a.59.59 0 01.824-.824l.002-.003z"/></g><defs><clipPath id="clip0"><path fill="currentColor" d="M0 0h24v24H0z"/></clipPath></defs></svg>