<svg width="24" height="24" viewBox="0 0 24 24" fill="none" xmlns="http://www.w3.org/2000/svg"><g clip-path="url(#clip0)" fill="currentColor"><path d="M21.492 9.831a.741.741 0 00.577-1.241.764.764 0 00-.565-.24h-1.148V6.988h1.152a.74.74 0 10-.004-1.483h-1.148V4.141h1.136a.731.731 0 00.72-1.005.751.751 0 00-.708-.476h-1.148v-.741A1.927 1.927 0 0018.43 0h-.009a1.933 1.933 0 00-1.918 1.92v14.968a3.817 3.817 0 103.854 0v-1.367h1.135a.74.74 0 00.771-.708.753.753 0 00-.759-.773h-1.148v-1.364h1.136a.741.741 0 00.577-1.241.765.765 0 00-.565-.24h-1.148V9.832h1.136zm-5.395 10.35a2.328 2.328 0 011.43-2.15.736.736 0 00.458-.683V1.922a.445.445 0 01.89 0v15.425a.737.737 0 00.454.684 2.332 2.332 0 01-.899 4.486h-.002a2.336 2.336 0 01-2.331-2.335zM13.176 6.91l-.853-.004.22-.221a.575.575 0 10-.814-.813l-1.034 1.034h-.852a3.167 3.167 0 00-1.06-1.832l.428-.74 1.412-.38a.577.577 0 10-.298-1.113l-.3.081.41-.714a.576.576 0 10-.997-.576l-.41.714-.08-.3a.577.577 0 00-1.114.297l.379 1.413-.427.738a3.156 3.156 0 00-2.117 0l-.427-.738.378-1.412a.576.576 0 10-1.114-.298l-.08.3-.41-.714a.576.576 0 10-.997.576l.411.714-.302-.081a.577.577 0 00-.298 1.114l1.412.38.428.74a3.167 3.167 0 00-1.06 1.83h-.852L1.724 5.873a.575.575 0 00-.814.813l.22.22H.31a.576.576 0 000 1.152h.82l-.22.22a.575.575 0 00.814.813l1.034-1.033h.853c.133.713.507 1.36 1.059 1.831l-.427.74-1.412.378a.579.579 0 00-.408.705.576.576 0 00.705.409l.301-.081-.41.714a.576.576 0 00.997.574l.41-.709.08.3a.579.579 0 001.056.14.576.576 0 00.057-.438l-.378-1.411.427-.738a3.185 3.185 0 002.117 0l.426.738-.378 1.41a.577.577 0 001.114.3l.08-.302.41.713a.575.575 0 10.997-.573l-.411-.715.3.081a.577.577 0 10.299-1.113l-1.412-.378-.427-.74a3.176 3.176 0 001.06-1.832h.853l1.035 1.034a.572.572 0 00.395.157h.017a.575.575 0 00.401-.972l-.22-.219h.82a.576.576 0 00.032-1.15zm-4.43.571A2.015 2.015 0 116.73 5.466 2.022 2.022 0 018.745 7.48z"/></g><defs><clipPath id="clip0"><path fill="currentColor" d="M0 0h24v24H0z"/></clipPath></defs></svg>