<svg width="24" height="24" viewBox="0 0 24 24" fill="none" xmlns="http://www.w3.org/2000/svg"><g clip-path="url(#clip0)" fill="currentColor"><path d="M16.442 10.45a.533.533 0 00-.689-.28l-2.73 1.062-2.198-1.22a2.49 2.49 0 000-1.649l2.198-1.221 2.72 1.06a.53.53 0 00.69-.281.508.508 0 00-.28-.663l-1.971-.77 1.74-.97a.505.505 0 00.207-.681l-.011-.021a.535.535 0 00-.723-.186l-1.747.972.29-2.02a.515.515 0 00-.45-.577.526.526 0 00-.6.436l-.405 2.807-2.2 1.224a2.718 2.718 0 00-1.481-.826V4.204l2.322-1.74a.503.503 0 00.11-.702l-.017-.02a.542.542 0 00-.74-.088L8.802 2.907V.962a.524.524 0 00-.182-.364.516.516 0 00-.385-.128.534.534 0 00-.492.496v1.94L6.071 1.654a.543.543 0 00-.741.089.503.503 0 00.072.707l.02.014 2.322 1.74v2.443c-.57.11-1.089.4-1.482.826l-2.2-1.224-.405-2.808a.53.53 0 00-.596-.436.516.516 0 00-.454.579L2.898 5.6 1.151 4.63a.532.532 0 00-.724.187.505.505 0 00.175.69l1.763.981-1.958.765a.504.504 0 00-.095.901.536.536 0 00.49.05l2.73-1.064 2.197 1.222a2.514 2.514 0 000 1.648l-2.198 1.22-2.728-1.062a.535.535 0 00-.69.282.508.508 0 00.275.662l1.977.772-1.741.968a.504.504 0 00-.208.682l.012.022a.533.533 0 00.455.253h.011a.534.534 0 00.261-.068l1.748-.972-.293 2.02a.52.52 0 00.495.58l.038-.002a.529.529 0 00.519-.441l.405-2.807 2.2-1.224c.393.427.912.716 1.482.826v2.442l-2.323 1.74a.504.504 0 00-.108.702l.016.02a.542.542 0 00.742.088l1.673-1.254v1.942a.528.528 0 00.528.524h.007a.531.531 0 00.524-.525v-1.941l1.672 1.254c.093.07.206.107.322.107h.008a.535.535 0 00.415-.197.504.504 0 00-.074-.706l-2.343-1.754V11.72a2.715 2.715 0 001.482-.825l2.2 1.224.405 2.808a.527.527 0 00.513.44h.007a.418.418 0 00.077 0 .514.514 0 00.454-.564l-.292-2.033 1.748.971c.079.045.168.068.26.068h.01a.54.54 0 00.457-.254.507.507 0 00-.18-.693l-1.758-.978 1.958-.765a.507.507 0 00.301-.649l-.008-.021zm-8.25.29a1.563 1.563 0 111.704-1.56 1.6 1.6 0 01-1.595 1.56H8.27l-.078-.002v.002zM23.461 9.668a.513.513 0 10.003-1.024h-1.393V6.88l1.393-.006a.513.513 0 000-1.026h-1.393V4.084H23.487a.512.512 0 10-.023-1.024H22.07v-.94A1.74 1.74 0 0020.334.447l-.065.001a1.746 1.746 0 00-1.671 1.674v14.795a3.484 3.484 0 00-1.923 3.106 3.663 3.663 0 003.793 3.528 3.676 3.676 0 003.527-3.53 3.482 3.482 0 00-1.924-3.104v-1.671h1.391a.514.514 0 10.003-1.025h-1.393v-1.764h1.39a.513.513 0 10.003-1.024h-1.393V9.668h1.39zm-2.123 8.047a2.483 2.483 0 011.597 2.306 2.606 2.606 0 01-2.599 2.491l-.111-.002a2.618 2.618 0 01-2.49-2.487 2.484 2.484 0 011.596-2.309.508.508 0 00.326-.473V2.125a.678.678 0 01.676-.65h.029a.681.681 0 01.65.647v15.12a.51.51 0 00.326.473zM13.238 17.607H13.224a.74.74 0 00.025 1.48l.029-.001a.737.737 0 00.712-.741.755.755 0 00-.752-.738zM4.926 21.229a.739.739 0 10.764.738.753.753 0 00-.764-.738zM2.805 18.06a.348.348 0 00-.05 0h-.58v-.56a.531.531 0 00-1.06.003v.557H.513a.513.513 0 10.022 1.025h.58v.559a.53.53 0 00.53.503h.028a.531.531 0 00.503-.506v-.556h.577a.515.515 0 00.407-.857.512.512 0 00-.355-.168zM11.336 21.455a.333.333 0 00-.049 0h-.58v-.561a.531.531 0 00-1.06.004v.557H9.07a.513.513 0 10-.003 1.025h.581v.561a.532.532 0 001.06-.004v-.557h.578a.513.513 0 10.05-1.024z"/></g><defs><clipPath id="clip0"><path fill="currentColor" d="M0 0h24v24H0z"/></clipPath></defs></svg>