<svg width="24" height="24" viewBox="0 0 24 24" fill="none" xmlns="http://www.w3.org/2000/svg"><g clip-path="url(#clip0)"><path d="M22.187 3.016A1.735 1.735 0 0020.58 1.92h-.016c-.343.016-.68.102-.988.255A1.796 1.796 0 0018.394.073a1.771 1.771 0 00-2.195 1.18c-.032.091-.07.21-.115.352-.052.165-.114.36-.19.582a1.751 1.751 0 00-2.702 2.136c.336.707.533 1.472.582 2.254A3.68 3.68 0 009.046 8.14c-.47.825-7.085 12.876-7.101 12.91a1.977 1.977 0 00.502 2.522 1.945 1.945 0 002.495-.052l.38-.35c8.18-7.524 10.258-9.487 10.558-9.806a3.758 3.758 0 00.433-4.833 7.069 7.069 0 012.654.119 1.751 1.751 0 001.535-3.044c.289-.136.425-.193.557-.25l.16-.068a1.768 1.768 0 00.968-2.273zM20.801 4.21l-.02.008a20.708 20.708 0 00-3.359 1.79l-.177.116.212.005c.693.017 1.384.102 2.06.254a.588.588 0 01-.28 1.14 8.814 8.814 0 00-1.967-.22h-.084a8.287 8.287 0 00-1.505.165.595.595 0 01-.504-.104.617.617 0 01-.228-.48 7.154 7.154 0 00-.729-3.1.606.606 0 01.238-.797.578.578 0 01.796.237c.28.547.495 1.126.637 1.724l.044.184.081-.17c.517-1.091.951-2.22 1.299-3.376a.602.602 0 01.73-.402.614.614 0 01.4.728c-.25.84-.545 1.666-.88 2.476l-.077.182.171-.1a22.805 22.805 0 012.685-1.34.597.597 0 01.766.324.58.58 0 01-.309.756zm-5.765 8.362l-.001.002c-.237.255-1.475 1.41-3.202 3.016l-1.56-1.242a.61.61 0 00-.428-.124.582.582 0 00-.298 1.033l1.424 1.133c-1.659 1.538-3.413 3.151-4.697 4.334a285.448 285.448 0 00-2.046 1.89.812.812 0 01-1.244-1.025s1.107-2.021 2.447-4.462c.217.17.94.736 1.11.872a.587.587 0 00.816-.101.597.597 0 00-.1-.816l-1.26-.99a4164.36 4164.36 0 013.304-6.004c.358.287 2.097 1.68 2.34 1.854a.582.582 0 00.722-.912L9.872 9.055l.09-.162a6.64 6.64 0 00.093-.167 2.336 2.336 0 011.584-1.228 3.509 3.509 0 012.801.777 2.747 2.747 0 01.596 4.298z" fill="currentColor"/></g><defs><clipPath id="clip0"><path fill="currentColor" d="M0 0h24v24H0z"/></clipPath></defs></svg>