<svg xmlns="http://www.w3.org/2000/svg" xmlns:xlink="http://www.w3.org/1999/xlink"><defs><symbol viewBox="0 0 24 24" id="featherAperture"><path d="M12 22C17.5228 22 22 17.5228 22 12 22 6.47715 17.5228 2 12 2 6.47715 2 2 6.47715 2 12 2 17.5228 6.47715 22 12 22ZM14.3101 8 20.0501 17.94M9.68994 8H21.1699M7.38 12.0001 13.12 2.06006M9.68995 16.0001 3.94995 6.06006M14.31 16H2.82996M16.62 12 10.88 21.94" stroke="currentColor" stroke-width="2" stroke-linecap="round" stroke-linejoin="round"/></symbol><symbol viewBox="0 0 24 24" id="featherArrowDownLeft"><path d="M17 7 7 17M17 17H7V7" stroke="currentColor" stroke-width="2" stroke-linecap="round" stroke-linejoin="round"/></symbol><symbol viewBox="0 0 24 24" id="featherArrowLeftCircle"><path d="M12 22C17.5228 22 22 17.5228 22 12C22 6.47715 17.5228 2 12 2C6.47715 2 2 6.47715 2 12C2 17.5228 6.47715 22 12 22Z" stroke="currentColor" stroke-width="2" stroke-linecap="round" stroke-linejoin="round"/><path d="M12 8 8 12 12 16M16 12H8" stroke="currentColor" stroke-width="2" stroke-linecap="round" stroke-linejoin="round"/></symbol><symbol viewBox="0 0 24 24" id="featherCamera"><path d="M23 19C23 19.5304 22.7893 20.0391 22.4142 20.4142C22.0391 20.7893 21.5304 21 21 21H3C2.46957 21 1.96086 20.7893 1.58579 20.4142C1.21071 20.0391 1 19.5304 1 19V8C1 7.46957 1.21071 6.96086 1.58579 6.58579C1.96086 6.21071 2.46957 6 3 6H7L9 3H15L17 6H21C21.5304 6 22.0391 6.21071 22.4142 6.58579C22.7893 6.96086 23 7.46957 23 8V19Z" stroke="currentColor" stroke-width="2" stroke-linecap="round" stroke-linejoin="round"/><path d="M12 17C14.2091 17 16 15.2091 16 13C16 10.7909 14.2091 9 12 9C9.79086 9 8 10.7909 8 13C8 15.2091 9.79086 17 12 17Z" stroke="currentColor" stroke-width="2" stroke-linecap="round" stroke-linejoin="round"/></symbol><symbol viewBox="0 0 24 24" id="featherCheckCircle"><path d="M22 11.08V12C21.9988 14.1564 21.3005 16.2547 20.0093 17.9818C18.7182 19.709 16.9033 20.9725 14.8354 21.5839C12.7674 22.1953 10.5573 22.1219 8.53447 21.3746C6.51168 20.6273 4.78465 19.2461 3.61096 17.4371C2.43727 15.628 1.87979 13.4881 2.02168 11.3363C2.16356 9.18455 2.99721 7.13631 4.39828 5.49706C5.79935 3.85781 7.69279 2.71537 9.79619 2.24013C11.8996 1.7649 14.1003 1.98232 16.07 2.85999" stroke="currentColor" stroke-width="2" stroke-linecap="round" stroke-linejoin="round"/><path d="M22 4L12 14.01L9 11.01" stroke="currentColor" stroke-width="2" stroke-linecap="round" stroke-linejoin="round"/></symbol><symbol viewBox="0 0 24 24" id="featherCloudLightning"><g clip-path="url(#a)"><path d="M19.0001 16.9001C20.2152 16.6533 21.2953 15.9639 22.0307 14.9655C22.7662 13.9672 23.1044 12.7312 22.9798 11.4976C22.8552 10.2639 22.2766 9.12052 21.3564 8.28943C20.4362 7.45834 19.24 6.99881 18.0001 7.00006H16.7401C16.4087 5.71737 15.7641 4.53705 14.864 3.56504C13.9638 2.59304 12.8364 1.85979 11.5829 1.43112C10.3294 1.00245 8.98903 0.891787 7.68219 1.10906C6.37535 1.32634 5.14293 1.86475 4.09556 2.67596C3.0482 3.48718 2.21868 4.54579 1.68149 5.75677C1.1443 6.96774 0.916246 8.29317 1.01781 9.61405C1.11937 10.9349 1.54737 12.2099 2.26338 13.3245C2.97939 14.4391 3.96099 15.3585 5.12006 16.0001" stroke="currentColor" stroke-width="2" stroke-linecap="round" stroke-linejoin="round"/><path d="M13 11L9 17H15L11 23" stroke="currentColor" stroke-width="2" stroke-linecap="round" stroke-linejoin="round"/></g><defs><clipPath id="a"><path fill="currentColor" d="M0 0H24V24H0z"/></clipPath></defs></symbol><symbol viewBox="0 0 24 24" id="featherEye"><path d="M1 12C1 12 5 4 12 4C19 4 23 12 23 12C23 12 19 20 12 20C5 20 1 12 1 12Z" stroke="currentColor" stroke-width="2" stroke-linecap="round" stroke-linejoin="round"/><path d="M12 15C13.6569 15 15 13.6569 15 12C15 10.3431 13.6569 9 12 9C10.3431 9 9 10.3431 9 12C9 13.6569 10.3431 15 12 15Z" stroke="currentColor" stroke-width="2" stroke-linecap="round" stroke-linejoin="round"/></symbol><symbol viewBox="0 0 24 24" id="featherHeart"><path d="M20.84 4.60999C20.3292 4.099 19.7228 3.69364 19.0554 3.41708C18.3879 3.14052 17.6725 2.99817 16.95 2.99817C16.2275 2.99817 15.5121 3.14052 14.8446 3.41708C14.1772 3.69364 13.5708 4.099 13.06 4.60999L12 5.66999L10.94 4.60999C9.9083 3.5783 8.50903 2.9987 7.05 2.9987C5.59096 2.9987 4.19169 3.5783 3.16 4.60999C2.1283 5.64169 1.54871 7.04096 1.54871 8.49999C1.54871 9.95903 2.1283 11.3583 3.16 12.39L4.22 13.45L12 21.23L19.78 13.45L20.84 12.39C21.351 11.8792 21.7563 11.2728 22.0329 10.6053C22.3095 9.93789 22.4518 9.22248 22.4518 8.49999C22.4518 7.77751 22.3095 7.0621 22.0329 6.39464C21.7563 5.72718 21.351 5.12075 20.84 4.60999V4.60999Z" stroke="currentColor" stroke-width="2" stroke-linecap="round" stroke-linejoin="round"/></symbol></defs></svg>