<svg xmlns="http://www.w3.org/2000/svg" xmlns:xlink="http://www.w3.org/1999/xlink"><defs><symbol viewBox="0 0 24 24" id="github"><path d="M12 2C10.6868 2 9.38642 2.25866 8.17317 2.7612C6.95991 3.26375 5.85752 4.00035 4.92893 4.92893C3.05357 6.8043 2 9.34784 2 12C2 16.42 4.87 20.17 8.84 21.5C9.34 21.58 9.5 21.27 9.5 21V19.31C6.73 19.91 6.14 17.97 6.14 17.97C5.68 16.81 5.03 16.5 5.03 16.5C4.12 15.88 5.1 15.9 5.1 15.9C6.1 15.97 6.63 16.93 6.63 16.93C7.5 18.45 8.97 18 9.54 17.76C9.63 17.11 9.89 16.67 10.17 16.42C7.95 16.17 5.62 15.31 5.62 11.5C5.62 10.39 6 9.5 6.65 8.79C6.55 8.54 6.2 7.5 6.75 6.15C6.75 6.15 7.59 5.88 9.5 7.17C10.29 6.95 11.15 6.84 12 6.84C12.85 6.84 13.71 6.95 14.5 7.17C16.41 5.88 17.25 6.15 17.25 6.15C17.8 7.5 17.45 8.54 17.35 8.79C18 9.5 18.38 10.39 18.38 11.5C18.38 15.32 16.04 16.16 13.81 16.41C14.17 16.72 14.5 17.33 14.5 18.26V21C14.5 21.27 14.66 21.59 15.17 21.5C19.14 20.16 22 16.42 22 12C22 10.6868 21.7413 9.38642 21.2388 8.17317C20.7362 6.95991 19.9997 5.85752 19.0711 4.92893C18.1425 4.00035 17.0401 3.26375 15.8268 2.7612C14.6136 2.25866 13.3132 2 12 2Z" fill="currentColor"/></symbol><symbol viewBox="0 0 24 24" id="home"><path d="M2.99997 13H3.99997V20C3.99997 21.103 4.89697 22 5.99997 22H18C19.103 22 20 21.103 20 20V13H21C21.1977 13 21.391 12.9413 21.5554 12.8314C21.7198 12.7215 21.848 12.5654 21.9236 12.3827C21.9993 12.2 22.0191 11.9989 21.9806 11.805C21.942 11.611 21.8468 11.4329 21.707 11.293L12.707 2.29302C12.6142 2.20007 12.504 2.12633 12.3827 2.07602C12.2613 2.02571 12.1313 1.99982 12 1.99982C11.8686 1.99982 11.7386 2.02571 11.6173 2.07602C11.496 2.12633 11.3858 2.20007 11.293 2.29302L2.29297 11.293C2.15316 11.4329 2.05795 11.611 2.01939 11.805C1.98082 11.9989 2.00062 12.2 2.07629 12.3827C2.15196 12.5654 2.2801 12.7215 2.44451 12.8314C2.60892 12.9413 2.80222 13 2.99997 13ZM9.99997 20V15H14V20H9.99997ZM12 4.41402L18 10.414V15L18.001 20H16V15C16 13.897 15.103 13 14 13H9.99997C8.89697 13 7.99997 13.897 7.99997 15V20H5.99997V10.414L12 4.41402Z" fill="currentColor"/></symbol><symbol viewBox="0 0 24 24" id="pen"><g clip-path="url(#a)"><path d="M12.138 4.53798C12.4745 4.40354 12.8412 4.36304 13.1989 4.42081C13.5566 4.47858 13.8919 4.63245 14.169 4.86598L14.295 4.98098L19.019 9.70498C19.2756 9.96125 19.4576 10.2824 19.5457 10.6342C19.6337 10.986 19.6245 11.3551 19.519 11.702L19.462 11.862L17.097 17.775C16.9644 18.106 16.7457 18.3956 16.4634 18.6137C16.1812 18.8317 15.8458 18.9703 15.492 19.015L10.413 19.65C10.283 19.665 10.145 19.684 10.003 19.706L9.559 19.778L9.327 19.82L8.604 19.96L8.109 20.066L7.364 20.233L6.409 20.461L4.857 20.857L4.211 21.031C4.04798 21.0758 3.87631 21.079 3.71174 21.0402C3.54716 21.0015 3.39495 20.922 3.26905 20.8092C3.14316 20.6963 3.04761 20.5537 2.99117 20.3943C2.93472 20.2349 2.9192 20.0639 2.946 19.897L2.98 19.751L3.275 18.639L3.539 17.591L3.767 16.636L3.934 15.891L4.039 15.395L4.18 14.673L4.26 14.216L4.324 13.788L4.984 8.50798C5.02549 8.1821 5.14665 7.87147 5.33677 7.60356C5.52688 7.33566 5.7801 7.11873 6.074 6.97198L6.225 6.90298L12.138 4.53798ZM12.88 6.39498L6.968 8.75998L6.384 13.432L6.336 13.828C6.23798 14.5636 6.10954 15.2949 5.951 16.02L5.78 16.806L9.068 13.518C8.95401 13.0927 8.98354 12.6417 9.152 12.2349C9.32047 11.8281 9.61845 11.4883 9.99974 11.2682C10.381 11.048 10.8243 10.9598 11.2608 11.0173C11.6973 11.0747 12.1027 11.2746 12.414 11.586C12.7254 11.8973 12.9252 12.3026 12.9827 12.7392C13.0402 13.1757 12.952 13.619 12.7318 14.0002C12.5117 14.3815 12.1718 14.6795 11.7651 14.848C11.3583 15.0164 10.9073 15.046 10.482 14.932L7.194 18.22L7.586 18.133L8.37 17.968C8.85855 17.868 9.34974 17.7813 9.84301 17.708L15.24 17.032L17.605 11.12L12.88 6.39498ZM15.243 3.10098C15.4151 2.92866 15.6441 2.82504 15.8871 2.80958C16.1302 2.79411 16.3705 2.86786 16.563 3.01698L16.657 3.10098L20.899 7.34298C21.0803 7.52252 21.186 7.76455 21.1947 8.01953C21.2033 8.27451 21.1142 8.52315 20.9455 8.71456C20.7769 8.90597 20.5414 9.02568 20.2874 9.04918C20.0333 9.07269 19.7799 8.9982 19.579 8.84098L19.485 8.75698L15.243 4.51498C15.0555 4.32745 14.9502 4.07315 14.9502 3.80798C14.9502 3.54282 15.0555 3.28851 15.243 3.10098Z" fill="currentColor"/></g><defs><clipPath id="a"><path fill="currentColor" d="M0 0H24V24H0z"/></clipPath></defs></symbol><symbol viewBox="0 0 24 24" id="twitter"><path d="M22.46 6C21.69 6.35 20.86 6.58 20 6.69C20.88 6.16 21.56 5.32 21.88 4.31C21.05 4.81 20.13 5.16 19.16 5.36C18.37 4.5 17.26 4 16 4C13.65 4 11.73 5.92 11.73 8.29C11.73 8.63 11.77 8.96 11.84 9.27C8.27998 9.09 5.10998 7.38 2.99998 4.79C2.62998 5.42 2.41998 6.16 2.41998 6.94C2.41998 8.43 3.16998 9.75 4.32998 10.5C3.61998 10.5 2.95998 10.3 2.37998 10V10.03C2.37998 12.11 3.85998 13.85 5.81998 14.24C5.19071 14.4122 4.53007 14.4362 3.88998 14.31C4.16158 15.1625 4.69351 15.9084 5.41099 16.4429C6.12847 16.9775 6.99543 17.2737 7.88998 17.29C6.37361 18.4904 4.49397 19.1393 2.55998 19.13C2.21998 19.13 1.87998 19.11 1.53998 19.07C3.43998 20.29 5.69998 21 8.11998 21C16 21 20.33 14.46 20.33 8.79C20.33 8.6 20.33 8.42 20.32 8.23C21.16 7.63 21.88 6.87 22.46 6Z" fill="currentColor"/></symbol></defs></svg>