<svg width="984" height="116" viewBox="0 0 984 116" fill="none" xmlns="http://www.w3.org/2000/svg"><mask id="a" fill="white"><path d="M0 0H984V116H0V0Z"/></mask><path d="M984 116V114H0V116V118H984V116Z" fill="#1A1A1A" mask="url(#a)"/><path d="M4.55114 27.6364H18.2045L32.625 62.8182H33.2386L47.6591 27.6364H61.3125V80H50.5739V45.9176H50.1392L36.5881 79.7443H29.2756L15.7244 45.7898H15.2898V80H4.55114V27.6364ZM95.4141 63.2784V40.7273H106.306V80H95.8487V72.8665H95.4396C94.5533 75.1676 93.0788 77.017 91.0163 78.4148C88.9709 79.8125 86.4737 80.5114 83.5249 80.5114C80.8999 80.5114 78.5902 79.9148 76.5959 78.7216C74.6016 77.5284 73.0419 75.8324 71.9169 73.6335C70.8089 71.4347 70.2464 68.8011 70.2294 65.733V40.7273H81.1214V63.7898C81.1385 66.108 81.7607 67.9403 82.9879 69.2869C84.2152 70.6335 85.8601 71.3068 87.9226 71.3068C89.2351 71.3068 90.4624 71.0085 91.6044 70.4119C92.7464 69.7983 93.6669 68.8949 94.3658 67.7017C95.0817 66.5085 95.4311 65.0341 95.4141 63.2784ZM125.911 27.6364V80H115.018V27.6364H125.911ZM155.525 40.7273V48.9091H131.874V40.7273H155.525ZM137.244 31.3182H148.136V67.9318C148.136 68.9375 148.289 69.7216 148.596 70.2841C148.903 70.8295 149.329 71.2131 149.874 71.4347C150.437 71.6562 151.085 71.767 151.817 71.767C152.329 71.767 152.84 71.7244 153.352 71.6392C153.863 71.5369 154.255 71.4602 154.528 71.4091L156.241 79.5142C155.695 79.6847 154.928 79.8807 153.94 80.1023C152.951 80.3409 151.749 80.4858 150.335 80.5369C147.71 80.6392 145.408 80.2898 143.431 79.4886C141.471 78.6875 139.945 77.4432 138.854 75.7557C137.763 74.0682 137.227 71.9375 137.244 69.3636V31.3182ZM162.62 80V40.7273H173.512V80H162.62ZM168.092 35.6648C166.472 35.6648 165.083 35.1278 163.924 34.054C162.782 32.9631 162.211 31.6591 162.211 30.142C162.211 28.642 162.782 27.3551 163.924 26.2812C165.083 25.1903 166.472 24.6449 168.092 24.6449C169.711 24.6449 171.092 25.1903 172.234 26.2812C173.393 27.3551 173.972 28.642 173.972 30.142C173.972 31.6591 173.393 32.9631 172.234 34.054C171.092 35.1278 169.711 35.6648 168.092 35.6648ZM199.982 80.767C195.959 80.767 192.499 79.9148 189.601 78.2102C186.72 76.4886 184.504 74.1023 182.953 71.0511C181.419 68 180.652 64.4886 180.652 60.517C180.652 56.4943 181.428 52.9659 182.979 49.9318C184.547 46.8807 186.771 44.5028 189.652 42.7983C192.533 41.0767 195.959 40.2159 199.93 40.2159C203.357 40.2159 206.357 40.8381 208.93 42.0824C211.504 43.3267 213.541 45.0739 215.041 47.3239C216.541 49.5739 217.368 52.2159 217.521 55.25H207.243C206.953 53.2898 206.186 51.7131 204.942 50.5199C203.714 49.3097 202.104 48.7045 200.109 48.7045C198.422 48.7045 196.947 49.1648 195.686 50.0852C194.442 50.9886 193.47 52.3097 192.771 54.0483C192.072 55.7869 191.723 57.892 191.723 60.3636C191.723 62.8693 192.064 65 192.746 66.7557C193.445 68.5114 194.425 69.8494 195.686 70.7699C196.947 71.6903 198.422 72.1506 200.109 72.1506C201.354 72.1506 202.47 71.8949 203.459 71.3835C204.464 70.8722 205.291 70.1307 205.939 69.1591C206.604 68.1705 207.038 66.9858 207.243 65.6051H217.521C217.351 68.6051 216.533 71.2472 215.067 73.5312C213.618 75.7983 211.615 77.571 209.058 78.8494C206.501 80.1278 203.476 80.767 199.982 80.767ZM242.239 80.767C238.268 80.767 234.833 79.9233 231.935 78.2358C229.055 76.5312 226.83 74.1619 225.262 71.1278C223.694 68.0767 222.91 64.5398 222.91 60.517C222.91 56.4602 223.694 52.9148 225.262 49.8807C226.83 46.8295 229.055 44.4602 231.935 42.7727C234.833 41.0682 238.268 40.2159 242.239 40.2159C246.211 40.2159 249.637 41.0682 252.518 42.7727C255.415 44.4602 257.648 46.8295 259.217 49.8807C260.785 52.9148 261.569 56.4602 261.569 60.517C261.569 64.5398 260.785 68.0767 259.217 71.1278C257.648 74.1619 255.415 76.5312 252.518 78.2358C249.637 79.9233 246.211 80.767 242.239 80.767ZM242.29 72.3295C244.097 72.3295 245.606 71.8182 246.816 70.7955C248.026 69.7557 248.938 68.3409 249.552 66.5511C250.183 64.7614 250.498 62.7244 250.498 60.4403C250.498 58.1562 250.183 56.1193 249.552 54.3295C248.938 52.5398 248.026 51.125 246.816 50.0852C245.606 49.0455 244.097 48.5256 242.29 48.5256C240.467 48.5256 238.933 49.0455 237.688 50.0852C236.461 51.125 235.532 52.5398 234.901 54.3295C234.288 56.1193 233.981 58.1562 233.981 60.4403C233.981 62.7244 234.288 64.7614 234.901 66.5511C235.532 68.3409 236.461 69.7557 237.688 70.7955C238.933 71.8182 240.467 72.3295 242.29 72.3295ZM279.543 27.6364V80H268.651V27.6364H279.543ZM306.013 80.767C302.041 80.767 298.607 79.9233 295.709 78.2358C292.828 76.5312 290.604 74.1619 289.036 71.1278C287.467 68.0767 286.683 64.5398 286.683 60.517C286.683 56.4602 287.467 52.9148 289.036 49.8807C290.604 46.8295 292.828 44.4602 295.709 42.7727C298.607 41.0682 302.041 40.2159 306.013 40.2159C309.984 40.2159 313.411 41.0682 316.291 42.7727C319.189 44.4602 321.422 46.8295 322.99 49.8807C324.558 52.9148 325.342 56.4602 325.342 60.517C325.342 64.5398 324.558 68.0767 322.99 71.1278C321.422 74.1619 319.189 76.5312 316.291 78.2358C313.411 79.9233 309.984 80.767 306.013 80.767ZM306.064 72.3295C307.871 72.3295 309.379 71.8182 310.589 70.7955C311.8 69.7557 312.712 68.3409 313.325 66.5511C313.956 64.7614 314.271 62.7244 314.271 60.4403C314.271 58.1562 313.956 56.1193 313.325 54.3295C312.712 52.5398 311.8 51.125 310.589 50.0852C309.379 49.0455 307.871 48.5256 306.064 48.5256C304.24 48.5256 302.706 49.0455 301.462 50.0852C300.234 51.125 299.305 52.5398 298.675 54.3295C298.061 56.1193 297.754 58.1562 297.754 60.4403C297.754 62.7244 298.061 64.7614 298.675 66.5511C299.305 68.3409 300.234 69.7557 301.462 70.7955C302.706 71.8182 304.24 72.3295 306.064 72.3295ZM332.425 80V40.7273H342.984V47.5795H343.393C344.109 45.142 345.311 43.3011 346.999 42.0568C348.686 40.7955 350.629 40.1648 352.828 40.1648C353.374 40.1648 353.962 40.1989 354.592 40.267C355.223 40.3352 355.777 40.429 356.254 40.5483V50.2131C355.743 50.0597 355.036 49.9233 354.132 49.804C353.229 49.6847 352.402 49.625 351.652 49.625C350.05 49.625 348.618 49.9744 347.357 50.6733C346.112 51.3551 345.124 52.3097 344.391 53.5369C343.675 54.7642 343.317 56.179 343.317 57.7812V80H332.425ZM389.825 27.6364V80H378.754V27.6364H389.825ZM416.474 80.767C412.451 80.767 408.991 79.9148 406.093 78.2102C403.212 76.4886 400.996 74.1023 399.445 71.0511C397.911 68 397.144 64.4886 397.144 60.517C397.144 56.4943 397.92 52.9659 399.471 49.9318C401.039 46.8807 403.263 44.5028 406.144 42.7983C409.025 41.0767 412.451 40.2159 416.423 40.2159C419.849 40.2159 422.849 40.8381 425.423 42.0824C427.996 43.3267 430.033 45.0739 431.533 47.3239C433.033 49.5739 433.86 52.2159 434.013 55.25H423.735C423.445 53.2898 422.678 51.7131 421.434 50.5199C420.207 49.3097 418.596 48.7045 416.602 48.7045C414.914 48.7045 413.44 49.1648 412.178 50.0852C410.934 50.9886 409.962 52.3097 409.263 54.0483C408.565 55.7869 408.215 57.892 408.215 60.3636C408.215 62.8693 408.556 65 409.238 66.7557C409.937 68.5114 410.917 69.8494 412.178 70.7699C413.44 71.6903 414.914 72.1506 416.602 72.1506C417.846 72.1506 418.962 71.8949 419.951 71.3835C420.957 70.8722 421.783 70.1307 422.431 69.1591C423.096 68.1705 423.531 66.9858 423.735 65.6051H434.013C433.843 68.6051 433.025 71.2472 431.559 73.5312C430.11 75.7983 428.107 77.571 425.55 78.8494C422.994 80.1278 419.968 80.767 416.474 80.767ZM458.732 80.767C454.76 80.767 451.325 79.9233 448.428 78.2358C445.547 76.5312 443.322 74.1619 441.754 71.1278C440.186 68.0767 439.402 64.5398 439.402 60.517C439.402 56.4602 440.186 52.9148 441.754 49.8807C443.322 46.8295 445.547 44.4602 448.428 42.7727C451.325 41.0682 454.76 40.2159 458.732 40.2159C462.703 40.2159 466.129 41.0682 469.01 42.7727C471.908 44.4602 474.141 46.8295 475.709 49.8807C477.277 52.9148 478.061 56.4602 478.061 60.517C478.061 64.5398 477.277 68.0767 475.709 71.1278C474.141 74.1619 471.908 76.5312 469.01 78.2358C466.129 79.9233 462.703 80.767 458.732 80.767ZM458.783 72.3295C460.589 72.3295 462.098 71.8182 463.308 70.7955C464.518 69.7557 465.43 68.3409 466.044 66.5511C466.675 64.7614 466.99 62.7244 466.99 60.4403C466.99 58.1562 466.675 56.1193 466.044 54.3295C465.43 52.5398 464.518 51.125 463.308 50.0852C462.098 49.0455 460.589 48.5256 458.783 48.5256C456.959 48.5256 455.425 49.0455 454.18 50.0852C452.953 51.125 452.024 52.5398 451.393 54.3295C450.78 56.1193 450.473 58.1562 450.473 60.4403C450.473 62.7244 450.78 64.7614 451.393 66.5511C452.024 68.3409 452.953 69.7557 454.18 70.7955C455.425 71.8182 456.959 72.3295 458.783 72.3295ZM496.036 57.2955V80H485.143V40.7273H495.524V47.6562H495.984C496.854 45.3722 498.311 43.5653 500.357 42.2358C502.402 40.8892 504.882 40.2159 507.797 40.2159C510.524 40.2159 512.902 40.8125 514.93 42.0057C516.959 43.1989 518.536 44.9034 519.661 47.1193C520.786 49.3182 521.348 51.9432 521.348 54.9943V80H510.456V56.9375C510.473 54.5341 509.859 52.6591 508.615 51.3125C507.371 49.9489 505.658 49.267 503.476 49.267C502.01 49.267 500.714 49.5824 499.589 50.2131C498.482 50.8437 497.612 51.7642 496.982 52.9744C496.368 54.1676 496.053 55.608 496.036 57.2955ZM562.609 51.9261L552.637 52.5398C552.467 51.6875 552.1 50.9205 551.538 50.2386C550.975 49.5398 550.234 48.9858 549.313 48.5767C548.41 48.1506 547.327 47.9375 546.066 47.9375C544.379 47.9375 542.955 48.2955 541.796 49.0114C540.637 49.7102 540.058 50.6477 540.058 51.8239C540.058 52.7614 540.433 53.554 541.183 54.2017C541.933 54.8494 543.219 55.3693 545.043 55.7614L552.151 57.1932C555.969 57.9773 558.816 59.2386 560.691 60.9773C562.566 62.7159 563.504 65 563.504 67.8295C563.504 70.4034 562.745 72.6619 561.228 74.6051C559.728 76.5483 557.665 78.0653 555.04 79.1562C552.433 80.2301 549.424 80.767 546.015 80.767C540.816 80.767 536.674 79.6847 533.589 77.5199C530.521 75.3381 528.722 72.3722 528.194 68.6222L538.907 68.0597C539.231 69.6449 540.015 70.8551 541.259 71.6903C542.504 72.5085 544.097 72.9176 546.04 72.9176C547.95 72.9176 549.484 72.5511 550.643 71.8182C551.819 71.0682 552.415 70.1051 552.433 68.929C552.415 67.9403 551.998 67.1307 551.18 66.5C550.362 65.8523 549.1 65.358 547.396 65.017L540.594 63.6619C536.759 62.8949 533.904 61.5653 532.029 59.6733C530.171 57.7812 529.242 55.3693 529.242 52.4375C529.242 49.9148 529.924 47.7415 531.288 45.9176C532.668 44.0938 534.603 42.6875 537.092 41.6989C539.597 40.7102 542.529 40.2159 545.887 40.2159C550.847 40.2159 554.751 41.2642 557.597 43.3608C560.461 45.4574 562.131 48.3125 562.609 51.9261Z" fill="#1A1A1A"/></svg>